<?xml version="1.0" encoding="UTF-8"?>
<svg id="Layer_2" data-name="Layer 2" xmlns="http://www.w3.org/2000/svg" viewBox="0 0 181.41 152.98">
  <defs>
    <style>
      .cls-1 {
        fill: #f5f5f5;
      }
    </style>
  </defs>
  <g id="Layer_5" data-name="Layer 5">
    <g>
      <path class="cls-1" d="m100.93,78.27c10.98-4.01,18.82-14.54,18.82-26.91,0-15.82-12.82-28.64-28.64-28.64s-28.64,12.82-28.64,28.64c0,12.31,7.77,22.81,18.67,26.85-19.17,2.47-36.32,12.37-39.08,29.69v36.87c16.03,9.43,79.35,12.37,97.25,0v-36.98c-2.72-17.13-19.5-26.95-38.4-29.51Z"/>
      <g>
        <path class="cls-1" d="m34.88,107.33l.09-.56c2.3-14.43,13.06-25.85,29.2-31.82-5.49-6.29-8.75-14.43-8.88-23.08v-.5c-.01-12.68,6.61-23.83,16.57-30.2C69.31,9.07,58.59,0,45.74,0c-14.75,0-26.71,11.96-26.71,26.71,0,11.48,7.25,21.27,17.42,25.05C18.57,54.06,2.57,63.29,0,79.44v34.39c6.16,3.62,19.8,6.21,34.88,7.21v-13.7Z"/>
        <path class="cls-1" d="m145.59,51.81c10.24-3.74,17.56-13.56,17.56-25.1,0-14.75-11.96-26.71-26.71-26.71-12.84,0-23.55,9.06-26.12,21.13,9.99,6.37,16.63,17.54,16.63,30.23,0,.1,0,.2,0,.31.07.03.13.06.2.08-.07,0-.14.02-.2.03-.1,8.77-3.43,17.02-9.03,23.35,15.77,6.02,26.27,17.32,28.53,31.53l.09.56v14.12c14.72-.57,28.19-2.9,34.88-7.52v-34.49c-2.54-15.97-18.18-25.14-35.81-27.53Z"/>
      </g>
    </g>
  </g>
</svg>