<?xml version="1.0" encoding="UTF-8"?>
<svg id="Layer_2" data-name="Layer 2" xmlns="http://www.w3.org/2000/svg" viewBox="0 0 144.29 174.88">
  <defs>
    <style>
      .cls-1 {
        fill: #f5f5f5;
      }

      .cls-2 {
        fill: none;
        stroke: #f5f5f5;
        stroke-miterlimit: 10;
        stroke-width: 5px;
      }
    </style>
  </defs>
  <g id="Layer_7" data-name="Layer 7">
    <g>
      <polygon class="cls-2" points="88.01 18.63 88.01 95.83 108.36 95.83 108.36 172.38 141.79 172.38 141.79 18.63 88.01 18.63"/>
      <rect class="cls-2" x="2.5" y="62.16" width="52.93" height="110.21"/>
      <rect class="cls-2" x="55.43" y="95.83" width="52.93" height="76.55"/>
      <polygon class="cls-2" points="34.22 36.05 34.22 62.16 55.43 62.16 55.43 95.83 88.01 95.83 88.01 36.05 34.22 36.05"/>
      <rect class="cls-1" x="98.66" y="28.45" width="5.69" height="10.67" rx="2.03" ry="2.03"/>
      <rect class="cls-1" x="111.32" y="28.45" width="5.69" height="10.67" rx="2.03" ry="2.03"/>
      <rect class="cls-1" x="124.88" y="28.45" width="5.69" height="10.67" rx="2.03" ry="2.03"/>
      <rect class="cls-1" x="13.01" y="72.73" width="5.69" height="10.67" rx="2.03" ry="2.03"/>
      <rect class="cls-1" x="25.67" y="72.73" width="5.69" height="10.67" rx="2.03" ry="2.03"/>
      <rect class="cls-1" x="39.23" y="72.73" width="5.69" height="10.67" rx="2.03" ry="2.03"/>
      <rect class="cls-1" x="13.01" y="91.05" width="5.69" height="10.67" rx="2.03" ry="2.03"/>
      <rect class="cls-1" x="25.67" y="91.05" width="5.69" height="10.67" rx="2.03" ry="2.03"/>
      <rect class="cls-1" x="39.23" y="91.05" width="5.69" height="10.67" rx="2.03" ry="2.03"/>
      <rect class="cls-1" x="13.01" y="109.38" width="5.69" height="10.67" rx="2.03" ry="2.03"/>
      <rect class="cls-1" x="25.67" y="109.38" width="5.69" height="10.67" rx="2.03" ry="2.03"/>
      <rect class="cls-1" x="39.23" y="109.38" width="5.69" height="10.67" rx="2.03" ry="2.03"/>
      <rect class="cls-1" x="13.01" y="127.7" width="5.69" height="10.67" rx="2.03" ry="2.03"/>
      <rect class="cls-1" x="25.67" y="127.7" width="5.69" height="10.67" rx="2.03" ry="2.03"/>
      <rect class="cls-1" x="39.23" y="127.7" width="5.69" height="10.67" rx="2.03" ry="2.03"/>
      <rect class="cls-1" x="98.66" y="46.77" width="5.69" height="10.67" rx="2.03" ry="2.03"/>
      <rect class="cls-1" x="111.32" y="46.77" width="5.69" height="10.67" rx="2.03" ry="2.03"/>
      <rect class="cls-1" x="124.88" y="46.77" width="5.69" height="10.67" rx="2.03" ry="2.03"/>
      <rect class="cls-1" x="98.66" y="65.09" width="5.69" height="10.67" rx="2.03" ry="2.03"/>
      <rect class="cls-1" x="111.32" y="65.09" width="5.69" height="10.67" rx="2.03" ry="2.03"/>
      <rect class="cls-1" x="124.88" y="65.09" width="5.69" height="10.67" rx="2.03" ry="2.03"/>
      <rect class="cls-1" x="98.66" y="83.41" width="5.69" height="10.67" rx="2.03" ry="2.03"/>
      <rect class="cls-1" x="111.32" y="83.41" width="5.69" height="10.67" rx="2.03" ry="2.03"/>
      <rect class="cls-1" x="124.88" y="83.41" width="5.69" height="10.67" rx="2.03" ry="2.03"/>
      <rect class="cls-1" x="111.32" y="101.73" width="5.69" height="10.67" rx="2.03" ry="2.03"/>
      <rect class="cls-1" x="58.73" y="28.15" width="5.69" height="38.99" rx="2.03" ry="2.03" transform="translate(13.93 109.22) rotate(-90)"/>
      <rect class="cls-1" x="58.73" y="40.79" width="5.69" height="38.99" rx="2.03" ry="2.03" transform="translate(1.29 121.86) rotate(-90)"/>
      <rect class="cls-1" x="65.16" y="59.86" width="5.69" height="26.13" rx="2.03" ry="2.03" transform="translate(-4.92 140.94) rotate(-90)"/>
      <rect class="cls-1" x="65.16" y="72.5" width="5.69" height="26.13" rx="2.03" ry="2.03" transform="translate(-17.56 153.58) rotate(-90)"/>
      <rect class="cls-1" x="79.75" y="104.08" width="5.69" height="60.08" rx="2.03" ry="2.03"/>
      <rect class="cls-1" x="67.38" y="104.08" width="5.69" height="60.08" rx="2.03" ry="2.03"/>
      <rect class="cls-1" x="92.08" y="104.08" width="5.69" height="60.08" rx="2.03" ry="2.03"/>
      <rect class="cls-1" x="124.88" y="101.73" width="5.69" height="10.67" rx="2.03" ry="2.03"/>
      <rect class="cls-1" x="111.32" y="120.05" width="5.69" height="10.67" rx="2.03" ry="2.03"/>
      <rect class="cls-1" x="124.88" y="120.05" width="5.69" height="10.67" rx="2.03" ry="2.03"/>
      <rect class="cls-1" x="111.32" y="138.37" width="5.69" height="10.67" rx="2.03" ry="2.03"/>
      <rect class="cls-1" x="124.88" y="138.37" width="5.69" height="10.67" rx="2.03" ry="2.03"/>
      <rect class="cls-2" x="18.7" y="153.94" width="21.03" height="18.44"/>
      <rect class="cls-2" x="43.54" y="21.97" width="36.21" height="14.08"/>
      <line class="cls-2" x1="61.11" x2="61.11" y2="21.97"/>
    </g>
  </g>
</svg>