<?xml version="1.0" encoding="UTF-8"?><svg id="Layer_2" xmlns="http://www.w3.org/2000/svg" viewBox="0 0 176.52 170"><defs><style>.cls-1{fill:#b5e2df;}.cls-2{fill:#b7e0b6;}.cls-3{fill:#e0b6c7;}.cls-4{fill:#a37436;}.cls-5{fill:#488781;}</style></defs><g id="Layer_3"><path class="cls-3" d="m169.97,36.68c-.41,2.37-.73,4.77-1.29,7.1-2.85,11.72-9.27,21.39-17.43,30.02-2.62,2.77-5.49,5.32-8.38,8.1-.47-1.1-.77-1.9-1.15-2.65-2.3-4.52-7.43-6.92-11.78-5.54-2.32.73-3.91,2.29-5.13,4.34-2.03,3.43-4.12,6.82-6.19,10.23-.11-.03-.22-.06-.33-.09v-1.64c0-9.82.09-19.65-.06-29.47-.03-2.29-.45-4.76-1.41-6.82-2.57-5.53-7.32-7.78-13.27-7.78-13.04,0-26.08-.02-39.12.03-1.51,0-2.3-.24-2.39-1.97-.14-2.63-.6-5.24-.82-7.87-1.45-17.66,16.55-31.87,33.39-26.41,6.13,1.99,11.08,5.53,14.43,11.07,3.44,5.68,10.26,5.56,13.32.03.22-.4.51-.77.76-1.15,7.79-11.59,24.66-14.54,36.02-6.38,5.16,3.71,8.48,8.59,10.21,14.66,1.76,4.19.99,9.81.61,12.19Z"/><path class="cls-4" d="m143.24,164.81c3.79-.07,7.58.01,11.37-.05,1-.02,2.08-.18,2.99-.59,1.66-.74,2.56-2.63,2.28-4.25-.31-1.78-1.74-3.27-3.54-3.54-.96-.14-1.95-.13-2.92-.14-4.02-.01-8.04.01-12.06-.02-2.11-.02-3.19-.93-3.19-2.56,0-1.62,1.1-2.57,3.19-2.59,5.28-.04,10.57,0,15.85-.03.97,0,1.98-.04,2.89-.33,1.9-.61,3.01-2.53,2.77-4.45-.25-1.99-1.86-3.6-3.94-3.65-3.73-.09-7.47-.05-11.2-.06-2.13,0-4.25.03-6.38-.01-2.07-.04-3.18-.99-3.18-2.6,0-1.64,1.08-2.54,3.2-2.54,6.66-.02,13.33.01,19.99-.03,1.07,0,2.21-.1,3.21-.45,1.88-.66,2.97-2.73,2.62-4.55-.38-2-2.14-3.5-4.31-3.51-6.72-.03-13.44-.02-20.16-.02-.52,0-1.03.02-1.55,0-1.91-.09-3.02-1.06-3.01-2.61,0-1.57,1.1-2.54,3.03-2.54,8.39-.02,16.78.05,25.16-.08,1.31-.02,2.9-.58,3.83-1.46,2.26-2.13,1.19-5.81-1.82-6.72-.86-.26-1.81-.31-2.72-.32-8.5-.02-17,.01-25.51-.02-5.51-.02-9.35-3.83-9.08-9.02.06-1.18.41-2.37.8-3.5,1.74-5.1,3.57-10.17,5.32-15.27,1.11-3.21.54-5.79-1.58-7.56-2.33-1.95-4.78-1.6-6.36,1-3.88,6.37-7.64,12.82-11.62,19.13-2.08,3.29-4.53,6.34-6.78,9.52-3.11,4.37-7.65,5.55-12.66,5.7-.84.03-1.69,0-2.6,0v39.93c1.58,0,3.06.01,4.54,0,3.51-.03,6.68,1.11,8.99,3.68,4.35,4.84,9.62,6.8,16.02,6.11,1.76-.19,3.56-.07,5.34,0h12.76Z"/><path d="m143.2,164.82c3.79-.07,7.58.01,11.37-.05,1-.02,2.08-.18,2.99-.59,1.66-.74,2.56-2.63,2.28-4.25-.31-1.78-1.74-3.27-3.54-3.54-.96-.14-1.95-.13-2.92-.14-4.02-.01-8.04.01-12.06-.02-2.11-.02-3.19-.93-3.19-2.56,0-1.62,1.1-2.57,3.19-2.59,5.28-.04,10.57,0,15.85-.03.97,0,1.98-.04,2.89-.33,1.9-.61,3.01-2.53,2.77-4.45-.25-1.99-1.86-3.6-3.94-3.65-3.73-.09-7.47-.05-11.2-.06-2.13,0-4.25.03-6.38-.01-2.07-.04-3.18-.99-3.18-2.6,0-1.64,1.08-2.54,3.2-2.54,6.66-.02,13.33.01,19.99-.03,1.07,0,2.21-.1,3.21-.45,1.88-.66,2.97-2.73,2.62-4.55-.38-2-2.14-3.5-4.31-3.51-6.72-.03-13.44-.02-20.16-.02-.52,0-1.03.02-1.55,0-1.91-.09-3.02-1.06-3.01-2.61,0-1.57,1.1-2.54,3.03-2.54,8.39-.02,16.78.05,25.16-.08,1.31-.02,2.9-.58,3.83-1.46,2.26-2.13,1.19-5.81-1.82-6.72-.86-.26-1.81-.31-2.72-.32-8.5-.02-17,.01-25.51-.02-5.51-.02-9.35-3.83-9.08-9.02.06-1.18.41-2.37.8-3.5,1.74-5.1,3.57-10.17,5.32-15.27,1.11-3.21.54-5.79-1.58-7.56-2.33-1.95-4.78-1.6-6.36,1-3.88,6.37-7.64,12.82-11.62,19.13-2.08,3.29-4.53,6.34-6.78,9.52-3.11,4.37-7.65,5.55-12.66,5.7-.84.03-1.69,0-2.6,0v39.93c1.58,0,3.06.01,4.54,0,3.51-.03,6.68,1.11,8.99,3.68,4.35,4.84,9.68,6.3,16.02,6.11,1.95-.1,3.56-.07,5.34,0h12.76Zm-12.79,5.14c-3.73.02-7.47.05-11.2-.07-3.43-.11-6.49-1.34-9.16-3.5-1.02-.83-2.06-1.67-2.95-2.64-3.17-3.45-7.14-4.05-11.55-3.4-.07.39-.13.79-.21,1.17-.61,3.11-2.69,4.99-5.86,5.01-8.62.05-17.23.07-25.85,0-4.05-.03-6.45-2.64-6.46-6.89-.03-11.03,0-22.06,0-33.09,0-.67,0-1.35,0-2.18-1.63,0-3.07-.11-4.47.06-.52.06-1.14.68-1.43,1.2-2.96,5.25-5.84,10.54-8.79,15.79-1.52,2.7-4.15,3.68-6.49,2.28-.97-.58-1.81-1.6-2.39-2.6-2.85-4.98-5.62-10.01-8.34-15.06-.65-1.21-1.44-1.73-2.84-1.71-3.21.06-6.44.07-9.64-.1C5.47,123.84-.06,117.73,0,109.83c.11-14.36.03-28.72.03-43.08,0-3.16,0-6.32,0-9.48.01-9.02,5.7-14.75,14.73-14.77,13.33-.03,26.65,0,39.98,0,.68,0,1.35,0,2.14,0-.29-3.13-.59-6.07-.82-9.02-.97-12.45,5.82-24.56,16.83-30.04,11.65-5.8,25.17-4.17,34.68,4.4,2.23,2.01,4.06,4.5,5.91,6.9,1.7,2.2,2.91,2.25,4.42-.13C124.01,5.03,132.89.11,144.11.09c14.07-.03,26.4,8.74,30.17,22.91,1.29,3.95.78,14.38.78,14.38-1.69,14.44-8.06,26.74-17.73,37.31-4.44,4.85-9.58,9.06-14.37,13.6-.55.53-1.06,1.21-1.32,1.92-1.73,4.8-3.41,9.62-5.07,14.44-1.14,3.29.3,5.27,3.8,5.27,8.16,0,16.31,0,24.47,0,6.75,0,9.28,1.72,11.67,7.93v3.1c-.9,3.02-2.43,5.55-5.54,7.01,1.25,2.52,1.85,5.09,1.01,7.81-.84,2.73-2.64,4.65-5.23,5.96,2.46,5.34,1.4,9.75-3.38,13.3,1.62,2.72,2.26,5.61,1.08,8.67-1.43,3.73-4.19,5.94-8.15,6.15-4.35.23-8.73.11-13.09.09h-12.8ZM169.33,24.49c-1.73-6.07-5.05-10.95-10.21-14.66-11.36-8.15-28.23-5.2-36.02,6.38-.26.38-.54.75-.76,1.15-3.06,5.54-9.88,5.66-13.32-.03-3.35-5.53-8.31-9.08-14.43-11.07-16.84-5.46-34.83,8.76-33.39,26.41.22,2.63.68,5.24.82,7.87.09,1.73.88,1.98,2.39,1.97,13.04-.05,26.08-.03,39.12-.03,5.95,0,10.7,2.26,13.27,7.78.96,2.05,1.37,4.53,1.41,6.82.15,9.82.06,19.65.06,29.47v1.64c.11.03.22.06.33.09,2.06-3.41,4.15-6.81,6.19-10.23,1.22-2.05,2.81-3.6,5.13-4.34,4.34-1.38,9.48,1.02,11.78,5.54.38.75.68,1.55,1.15,2.65,2.89-2.78,5.76-5.33,8.38-8.1,8.16-8.63,14.58-18.3,17.43-30.02.57-2.34.89-4.73,1.29-7.1s.6-7.92-.61-12.19Zm-73.77,85.35c1.56,0,3,.1,4.41-.02,2.59-.23,4.91-1.06,6.52-3.32,2.03-2.85,4.15-5.63,6.18-8.47.27-.38.4-.96.4-1.44.02-13.49.04-26.99-.01-40.48-.01-3.14-1.38-5.78-4.24-7.18-1.58-.77-3.5-1.19-5.27-1.2-29.63-.07-59.26-.05-88.89-.05-.34,0-.69,0-1.03.02-5.23.39-8.41,3.75-8.42,8.99-.02,17.8-.02,35.6,0,53.4,0,5.51,3.52,9.02,9.05,9.09,2.64.03,5.29.11,7.92-.02,3.66-.18,6.09,1.41,7.73,4.61,1.68,3.26,3.52,6.44,5.3,9.65.93,1.68,1.87,3.35,2.88,5.16.32-.54.54-.88.73-1.23,2.64-4.77,5.32-9.51,7.9-14.31,1.42-2.64,3.46-4.03,6.51-3.87,1.24.07,2.49.01,3.92.01,0-3.01,0-5.81,0-8.61.01-5.06,2.43-7.46,7.52-7.46,7.75,0,15.5,0,23.26,0,5.08,0,6.98,1.66,7.62,6.73Zm-21.91,51.54v-53.09c-3,0-5.86,0-8.72,0-2.5,0-2.59.1-2.59,2.64,0,15.96,0,31.91,0,47.87,0,.34.01.69,0,1.03-.03,1.09.5,1.56,1.57,1.55,3.21-.02,6.42,0,9.74,0Zm5.41-53.08v52.9c.2.08.3.15.41.15,2.81.02,5.62.03,8.43.04,2.38,0,2.39,0,2.39-2.36,0-16.12,0-32.25,0-48.37,0-.34.13-.77-.03-1.02-.31-.5-.77-1.27-1.19-1.28-3.31-.11-6.62-.06-10.01-.06Z"/><path class="cls-1" d="m95.6,109.83c-.64-5.07-2.53-6.72-7.62-6.73-7.75,0-15.5,0-23.26,0-5.1,0-7.51,2.4-7.52,7.46,0,2.8,0,5.6,0,8.61-1.43,0-2.68.06-3.92-.01-3.05-.17-5.09,1.22-6.51,3.87-2.58,4.8-5.26,9.54-7.9,14.31-.19.35-.41.69-.73,1.23-1.01-1.81-1.95-3.48-2.88-5.16-1.78-3.21-3.62-6.39-5.3-9.65-1.65-3.19-4.08-4.79-7.73-4.61-2.63.13-5.28.05-7.92.02-5.53-.07-9.04-3.57-9.05-9.09-.02-17.8-.02-35.6,0-53.4,0-5.24,3.19-8.6,8.42-8.99.34-.03.69-.02,1.03-.02,29.63,0,59.26-.02,88.89.05,1.77,0,3.69.42,5.27,1.2,2.86,1.4,4.23,4.03,4.24,7.18.05,13.49.03,26.99.01,40.48,0,.49-.13,1.06-.4,1.44-2.03,2.84-4.15,5.63-6.18,8.47-1.61,2.26-3.93,3.09-6.52,3.32-1.42.13-2.86.02-4.41.02Zm-61.4-18.44c4.53,0,8.22-3.66,8.25-8.19.03-4.59-3.67-8.25-8.35-8.26-4.44,0-8.18,3.78-8.17,8.29.01,4.5,3.72,8.17,8.26,8.16Zm23.9,0c4.55-.03,8.17-3.67,8.18-8.23,0-4.61-3.69-8.25-8.37-8.22-4.44.03-8.2,3.87-8.14,8.33.05,4.5,3.8,8.15,8.33,8.12Zm32.03-8.28c-.01-4.62-3.73-8.24-8.4-8.17-4.47.06-8.13,3.87-8.05,8.38.08,4.53,3.78,8.12,8.33,8.07,4.56-.05,8.13-3.69,8.12-8.28Z"/><path class="cls-2" d="m73.69,161.36c-3.32,0-6.53-.01-9.74,0-1.07,0-1.6-.47-1.57-1.55.01-.34,0-.69,0-1.03,0-15.96,0-31.91,0-47.87,0-2.54.1-2.64,2.59-2.64,2.86,0,5.72,0,8.72,0v53.09Z"/><path class="cls-2" d="m79.1,108.28c3.39,0,6.7-.05,10.01.06.42.01.87.78,1.19,1.28.16.25.03.67.03,1.02,0,16.12,0,32.25,0,48.37,0,2.35,0,2.36-2.39,2.36-2.81,0-5.62-.02-8.43-.04-.1,0-.21-.07-.41-.15v-52.9Z"/><path d="m34.19,91.39c-4.54,0-8.25-3.66-8.26-8.16-.01-4.51,3.72-8.3,8.17-8.29,4.68,0,8.38,3.68,8.35,8.26-.03,4.53-3.72,8.18-8.25,8.19Zm.09-11.2c-1.73-.03-3.1,1.23-3.17,2.9-.07,1.64,1.29,3.07,2.97,3.11,1.69.04,3.09-1.25,3.17-2.93.08-1.67-1.26-3.06-2.97-3.08Z"/><path d="m58.1,91.39c-4.53.03-8.27-3.63-8.33-8.12-.05-4.46,3.71-8.3,8.14-8.33,4.67-.03,8.37,3.61,8.37,8.22,0,4.56-3.63,8.2-8.18,8.23Zm-.05-11.24c-1.67,0-3.09,1.4-3.09,3.03,0,1.64,1.41,3.02,3.09,3.03,1.69,0,3.05-1.34,3.06-3.02,0-1.68-1.36-3.03-3.05-3.03Z"/><path d="m90.13,83.11c.01,4.58-3.56,8.23-8.12,8.28-4.55.05-8.26-3.54-8.33-8.07-.08-4.51,3.58-8.31,8.05-8.38,4.67-.07,8.39,3.55,8.4,8.17Zm-8.27,3.09c1.7.02,3.05-1.28,3.08-2.98.03-1.69-1.3-3.07-2.98-3.09-1.69-.03-3.06,1.31-3.09,2.99-.03,1.7,1.29,3.05,2.99,3.08Z"/><path class="cls-5" d="m34.29,80.18c1.71.03,3.05,1.42,2.97,3.08-.08,1.67-1.48,2.97-3.17,2.93-1.68-.04-3.04-1.47-2.97-3.11.07-1.67,1.44-2.93,3.17-2.9Z"/><path class="cls-5" d="m58.05,80.14c1.69,0,3.05,1.36,3.05,3.03,0,1.68-1.36,3.02-3.06,3.02-1.68,0-3.09-1.38-3.09-3.03,0-1.63,1.43-3.03,3.09-3.03Z"/><path class="cls-5" d="m81.86,86.2c-1.7-.02-3.01-1.37-2.99-3.08.03-1.69,1.4-3.02,3.09-2.99,1.68.03,3.01,1.4,2.98,3.09-.03,1.7-1.38,3-3.08,2.98Z"/></g></svg>