<?xml version="1.0" encoding="UTF-8"?><svg id="Layer_2" xmlns="http://www.w3.org/2000/svg" viewBox="0 0 171.5 171.5"><defs><style>.cls-1{fill:#ede1cc;}.cls-2{fill:#b5e2df;}.cls-3{fill:#488781;}</style></defs><g id="Layer_2-2"><path d="m141.35,0C142.47,0,143.59,0,144.7,0c.18.11.35.26.54.32,4.13,1.44,6.17,4.29,6.21,8.68,0,.76,0,1.52,0,2.41,1,0,1.78.05,2.54,0,9.64-.74,15.86,4.21,17.49,12.37v135.32c-.07.15,0,12.39-15.96,12.39-46.72,0-93.43,0-140.15,0-9.4,0-15.39-5.98-15.39-15.36C0,113,0,69.86,0,26.71c0-9.26,6.04-15.29,15.3-15.3,1.54,0,3.08,0,4.63,0,.11-1.74.03-3.27.33-4.72C20.98,3.11,23.56,1.2,26.8,0,27.91,0,29.03,0,30.15,0c.2.1.38.23.59.29,4.15,1.32,6.39,4.33,6.43,8.67,0,.76,0,1.53,0,2.37h11.42c0-.96-.03-1.83,0-2.7C48.76,4,51.39,1.35,55.6,0,56.72,0,57.84,0,58.95,0c.23.12.46.27.7.36,3.88,1.37,5.99,4.31,6.05,8.46.01.82,0,1.63,0,2.49h11.44c0-.76,0-1.42,0-2.08-.02-2.24.35-4.47,2-6.01C80.57,1.9,82.42,1.06,84.08,0c1.12,0,2.23,0,3.35,0,5.05,1.64,7.24,5.18,6.93,10.4-.02.3.09.62.13.88h11.2c.1-1.63.03-3.16.33-4.61C106.75,3.1,109.32,1.2,112.55,0,113.66,0,114.78,0,115.9,0c.2.1.38.23.59.29,4.15,1.32,6.39,4.33,6.43,8.67,0,.76,0,1.53,0,2.37h11.42c0-.96-.03-1.83,0-2.7C134.51,4,137.14,1.35,141.35,0ZM5.71,40.11c0,.71,0,1.32,0,1.92,0,38.01,0,76.02,0,114.03,0,6.3,3.42,9.72,9.71,9.72,46.89,0,93.77,0,140.66,0,6.29,0,9.71-3.43,9.71-9.73,0-38.01,0-76.02,0-114.03,0-.6,0-1.21,0-1.92H5.71Zm31.45-22.94c0,1.15.04,2.14,0,3.13-.21,4.7-3.95,8.26-8.63,8.24-4.68-.03-8.33-3.63-8.47-8.37-.03-.98,0-1.96,0-3.01-2.34,0-4.4-.14-6.45.03-3.91.31-7.13,2.98-7.6,6.83-.41,3.33-.08,6.75-.08,10.15h159.78c0-3.32.2-6.56-.06-9.76-.23-2.83-1.93-4.97-4.46-6.29-3.08-1.6-6.37-.91-9.71-.93,0,1.12.02,2.01,0,2.9-.13,4.84-3.81,8.46-8.56,8.44-4.73-.01-8.42-3.69-8.55-8.5-.02-.93,0-1.86,0-2.92h-11.43c0,1.26.04,2.26,0,3.26-.24,4.69-4.02,8.22-8.71,8.16-4.6-.06-8.23-3.64-8.38-8.28-.03-.99,0-1.98,0-3.01h-10.79c-.8,2.73-1.18,5.37-2.33,7.61-1.25,2.45-3.75,3.56-6.56,3.68-2.09.09-3.96-.5-5.62-1.77-3.15-2.41-3.55-5.86-3.33-9.52h-11.46c0,1.01.02,1.89,0,2.77-.12,4.87-3.73,8.5-8.49,8.52-4.8.02-8.52-3.68-8.63-8.59-.02-.92,0-1.84,0-2.78h-11.43Zm51.46-2.68c0-1.83.04-3.67,0-5.5-.05-2.01-1.15-3.24-2.82-3.26-1.67-.02-2.86,1.22-2.88,3.19-.05,3.56-.05,7.12,0,10.67.03,2.06,1.09,3.21,2.82,3.23,1.78.02,2.85-1.18,2.9-3.33.04-1.67,0-3.34,0-5Zm-62.86-.25c0,1.89-.04,3.78.01,5.67.05,1.78,1.15,2.88,2.77,2.9,1.6.02,2.86-1.09,2.89-2.81.07-3.78.07-7.56,0-11.35-.03-1.78-1.37-3.01-2.97-2.94-1.57.07-2.66,1.25-2.7,3.01-.04,1.83,0,3.67,0,5.51Zm34.24.1c0-1.84.03-3.67,0-5.51-.03-1.86-1.15-3.08-2.77-3.11-1.6-.03-2.88,1.21-2.91,3.01-.05,3.73-.06,7.45,0,11.18.03,1.82,1.29,2.97,2.96,2.91,1.61-.05,2.67-1.17,2.71-2.97.04-1.83,0-3.67.01-5.51Zm57.21.09c0-1.89.04-3.78-.01-5.67-.05-1.81-1.29-3.05-2.89-3.03-1.62.02-2.78,1.24-2.8,3.09-.03,3.62-.03,7.23,0,10.85.01,2.01,1.11,3.18,2.85,3.17,1.71-.01,2.8-1.23,2.84-3.22.03-1.72,0-3.45,0-5.17Zm28.54-.19c0-1.78.02-3.56,0-5.34-.03-1.94-1.21-3.21-2.88-3.18-1.59.03-2.79,1.29-2.81,3.12-.04,3.62-.04,7.23,0,10.85.02,1.97,1.18,3.17,2.91,3.14,1.74-.03,2.75-1.18,2.78-3.24.02-1.78,0-3.56,0-5.34Z"/><path class="cls-1" d="m5.71,40.11h160.09c0,.71,0,1.32,0,1.92,0,38.01,0,76.02,0,114.03,0,6.3-3.42,9.73-9.71,9.73-46.89,0-93.77,0-140.66,0-6.29,0-9.71-3.43-9.71-9.72,0-38.01,0-76.02,0-114.03,0-.6,0-1.21,0-1.92Zm115.46,100c1.38-.16,2.26-.27,3.15-.37,22.3-2.51,37.51-24.5,31.6-46.13-4.05-14.85-13.92-24.27-29.01-27.1-15.3-2.87-27.9,2.48-37.21,15.04-4.95,6.69-6.64,14.42-6.93,22.66-.69,19.54-18.72,33.46-37.88,29.46-14.24-2.98-24.57-15.51-24.84-30.13-.27-14.63,9.59-27.6,23.68-31.05,1.93-.47,3.93-.66,6.12-1.01-.19.49-.2.55-.23.58-.9.92-1.8,1.83-2.69,2.75-1.47,1.52-1.61,3.2-.37,4.43,1.24,1.23,2.9,1.09,4.42-.41,2.62-2.59,5.23-5.19,7.82-7.82,1.66-1.69,1.68-3.09.01-4.79-2.58-2.63-5.19-5.23-7.81-7.82-1.49-1.46-3.23-1.55-4.42-.3-1.14,1.2-1.03,2.9.38,4.3,1.02,1.01,2.14,1.92,3.22,2.88-.09.17-.19.33-.28.5-1.03.09-2.07.15-3.09.28-20.55,2.66-35.03,21.31-32.04,41.89,2.25,15.46,11.19,25.97,26.1,30.43,14.94,4.47,28.03.39,38.55-11.13,6.63-7.26,9.03-16.13,9.33-25.85.58-18.53,17.6-32.44,35.91-29.66,13.42,2.04,24.09,12.44,26.37,25.7,2.32,13.53-4.24,26.83-16.42,33.26-4.01,2.12-8.28,3.3-12.93,3.31.93-1.15,2-2.11,3-3.14,1.29-1.35,1.35-3.02.23-4.18-1.17-1.21-2.91-1.17-4.3.2-2.71,2.66-5.4,5.34-8.05,8.05-1.45,1.48-1.48,2.98-.07,4.42,2.69,2.76,5.42,5.48,8.17,8.17,1.36,1.33,2.99,1.37,4.18.22,1.21-1.17,1.15-2.89-.21-4.3-1.04-1.07-2.13-2.08-3.46-3.37Z"/><path class="cls-2" d="m37.16,17.17h11.43c0,.95-.02,1.87,0,2.78.1,4.91,3.82,8.61,8.63,8.59,4.75-.02,8.37-3.65,8.49-8.52.02-.88,0-1.77,0-2.77h11.46c-.22,3.66.18,7.11,3.33,9.52,1.66,1.27,3.53,1.86,5.62,1.77,2.82-.12,5.31-1.23,6.56-3.68,1.15-2.24,1.53-4.88,2.33-7.61h10.79c0,1.04-.03,2.03,0,3.01.15,4.64,3.78,8.22,8.38,8.28,4.69.06,8.47-3.47,8.71-8.16.05-1,0-2,0-3.26h11.43c0,1.06-.02,1.99,0,2.92.12,4.82,3.82,8.49,8.55,8.5,4.76.01,8.43-3.6,8.56-8.44.02-.89,0-1.78,0-2.9,3.33.02,6.63-.67,9.71.93,2.54,1.32,4.24,3.45,4.46,6.29.26,3.2.06,6.44.06,9.76H5.91c0-3.41-.32-6.82.08-10.15.47-3.85,3.69-6.52,7.6-6.83,2.05-.16,4.12-.03,6.45-.03,0,1.05-.02,2.03,0,3.01.14,4.74,3.79,8.34,8.47,8.37,4.68.03,8.42-3.54,8.63-8.24.04-.99,0-1.99,0-3.13Z"/><path class="cls-3" d="m88.62,14.49c0,1.67.03,3.34,0,5-.05,2.15-1.12,3.35-2.9,3.33-1.73-.02-2.79-1.17-2.82-3.23-.04-3.56-.05-7.12,0-10.67.03-1.97,1.22-3.21,2.88-3.19,1.67.02,2.77,1.26,2.82,3.26.05,1.83,0,3.67.01,5.5Z"/><path class="cls-3" d="m25.75,14.24c0-1.84-.03-3.67,0-5.51.04-1.76,1.14-2.94,2.7-3.01,1.6-.07,2.94,1.15,2.97,2.94.06,3.78.07,7.57,0,11.35-.03,1.72-1.29,2.83-2.89,2.81-1.62-.02-2.72-1.13-2.77-2.9-.05-1.89-.01-3.78-.01-5.67Z"/><path class="cls-3" d="m60,14.34c0,1.84.03,3.67,0,5.51-.04,1.8-1.1,2.92-2.71,2.97-1.67.06-2.93-1.09-2.96-2.91-.06-3.73-.06-7.45,0-11.18.02-1.8,1.31-3.04,2.91-3.01,1.62.03,2.74,1.25,2.77,3.11.03,1.83,0,3.67,0,5.51Z"/><path class="cls-3" d="m117.21,14.43c0,1.72.03,3.45,0,5.17-.04,1.99-1.14,3.21-2.84,3.22-1.74.02-2.84-1.16-2.85-3.17-.03-3.62-.03-7.23,0-10.85.02-1.84,1.18-3.07,2.8-3.09,1.6-.02,2.83,1.23,2.89,3.03.06,1.89.01,3.78.02,5.67Z"/><path class="cls-3" d="m145.75,14.23c0,1.78.02,3.56,0,5.34-.03,2.06-1.04,3.22-2.78,3.24-1.73.03-2.89-1.17-2.91-3.14-.04-3.62-.04-7.23,0-10.85.02-1.83,1.21-3.08,2.81-3.12,1.67-.03,2.85,1.24,2.88,3.18.03,1.78,0,3.56,0,5.34Z"/><path d="m121.17,140.12c1.33,1.29,2.42,2.3,3.46,3.37,1.36,1.4,1.41,3.13.21,4.3-1.19,1.15-2.82,1.1-4.18-.22-2.75-2.7-5.48-5.42-8.17-8.17-1.41-1.45-1.38-2.95.07-4.42,2.65-2.71,5.34-5.4,8.05-8.05,1.4-1.37,3.14-1.41,4.3-.2,1.12,1.16,1.06,2.83-.23,4.18-.99,1.04-2.07,1.99-3,3.14,4.65-.02,8.92-1.2,12.93-3.31,12.18-6.42,18.74-19.73,16.42-33.26-2.27-13.25-12.94-23.65-26.37-25.7-18.31-2.79-35.33,11.13-35.91,29.66-.3,9.72-2.7,18.59-9.33,25.85-10.52,11.52-23.62,15.6-38.55,11.13-14.91-4.47-23.86-14.97-26.1-30.43-2.99-20.58,11.49-39.23,32.04-41.89,1.03-.13,2.06-.19,3.09-.28.09-.17.19-.33.28-.5-1.08-.96-2.2-1.87-3.22-2.88-1.41-1.39-1.52-3.1-.38-4.3,1.19-1.25,2.93-1.16,4.42.3,2.63,2.58,5.23,5.19,7.81,7.82,1.66,1.69,1.65,3.1-.01,4.79-2.59,2.62-5.2,5.22-7.82,7.82-1.52,1.5-3.18,1.63-4.42.41-1.24-1.22-1.1-2.91.37-4.43.89-.92,1.8-1.83,2.69-2.75.03-.03.04-.1.23-.58-2.19.35-4.19.54-6.12,1.01-14.09,3.46-23.95,16.42-23.68,31.05.26,14.62,10.6,27.16,24.84,30.13,19.16,4.01,37.2-9.92,37.88-29.46.29-8.24,1.98-15.97,6.93-22.66,9.3-12.57,21.91-17.92,37.21-15.04,15.09,2.83,24.96,12.25,29.01,27.1,5.9,21.63-9.31,43.62-31.6,46.13-.89.1-1.77.21-3.15.37Z"/></g></svg>