<?xml version="1.0" encoding="utf-8"?>
<!-- Generator: Adobe Illustrator 27.2.0, SVG Export Plug-In . SVG Version: 6.00 Build 0)  -->
<svg version="1.1" id="Layer_1" xmlns="http://www.w3.org/2000/svg" xmlns:xlink="http://www.w3.org/1999/xlink" x="0px" y="0px"
	 viewBox="0 0 4000 1750" style="enable-background:new 0 0 4000 1750;" xml:space="preserve">
<style type="text/css">
	.st0{fill:#FFFFFF;}
	.st1{fill:#DCEBF7;}
	.st2{fill:#81C3D7;}
	.st3{fill:#C5CFD6;}
	.st4{fill:#7ACFF0;}
	.st5{fill:#93DBF5;}
	.st6{fill:#91ADB0;}
	.st7{fill:#ADBCBD;}
	.st8{fill:#947764;}
	.st9{fill:#4F3C30;}
	.st10{fill:#F890A5;}
	.st11{fill:#AB7655;}
	.st12{fill:#996A4C;}
	.st13{fill:#08ACB0;}
	.st14{fill:#0F2D3A;}
	.st15{fill:#0998BC;}
	.st16{fill:#08A4A8;}
	.st17{fill:#16425B;}
	.st18{fill:#04575B;}
	.st19{fill:#124145;}
	.st20{fill:#3AA4DB;}
	.st21{fill:#D94756;}
	.st22{fill:#07728D;}
	.st23{fill:#0886A6;}
	.st24{opacity:0.1;enable-background:new    ;}
	.st25{fill:#044852;}
	.st26{fill:#05576C;}
	.st27{fill:#6D8485;}
	.st28{fill:#335759;}
	.st29{fill:#E99F8F;}
	.st30{fill:#E09181;}
	.st31{fill:#43738C;}
	.st32{fill:#05676C;}
	.st33{fill:#0E2935;}
	.st34{fill:#8A6F5D;}
	.st35{fill:#3AA3DB;}
	.st36{fill:#51B591;}
	.st37{fill:#3F8F73;}
	.st38{fill:#5E7273;}
</style>
<g id="Layer_2_00000152965853496426595810000012134923148980417178_">
	<rect class="st0" width="4000" height="1750"/>
	<path class="st1" d="M638.9,1750H4000V0H2618.7c14.3,213.4-293.4,699.3-995.6,1055.8C1249.8,1245.4,832.3,1418.6,638.9,1750z"/>
	<rect y="1616.7" class="st2" width="4000" height="133.3"/>
</g>
<g id="Layer_3">
	<g>
		<g>
			<path class="st3" d="M3756.6,136.5H2709.1c-0.8,0-1.4,0.3-1.4,0.8v802.3c0,0.4,0.6,0.8,1.4,0.8h1047.6c0.8,0,1.4-0.3,1.4-0.8
				V137.2C3758,136.8,3757.4,136.5,3756.6,136.5z"/>
			<g>
				<polygon class="st4" points="2760.2,190.6 2760.2,886.1 3235.7,886.1 3322.5,886.1 3704.4,886.1 3704.4,190.6 3322.5,190.6 
					3235.7,190.6 				"/>
				<polygon class="st5" points="3704.4,492.4 3704.4,190.6 3406,190.6 				"/>
				<path class="st5" d="M3704.4,776.5V582l-387.1-391.4h-192.4C3228.4,295.2,3704.4,776.5,3704.4,776.5z"/>
				<path class="st5" d="M3243.6,737c49,49.6,97.9,99.3,146.7,149.1h119.8c-53.6-54.8-107.3-109.5-160.9-164.2
					c-104.6-106.6-209.3-213.1-314.1-319.5c-69.6-70.6-139.2-141.2-208.8-211.8h-66.1v57.1c62.4,63.3,124.8,126.6,187.3,189.8
					C3046.2,537.3,3145,637.1,3243.6,737L3243.6,737z"/>
				<path class="st0" d="M3213.7,168.4h-475.5v739.9h988.2V168.4H3213.7L3213.7,168.4z M3265.8,212.9h416.6v651h-416.6V212.9z
					 M2782.2,212.9h416.6v651h-416.6V212.9z"/>
			</g>
		</g>
		<g>
			<path class="st6" d="M3247.6,518.7v14.9c0,7.9-6.4,14.3-14.3,14.3h-0.7c-7.9,0-14.3-6.4-14.3-14.3v-14.9
				c0-7.9,6.4-14.3,14.3-14.3h0.7C3241.1,504.4,3247.6,510.8,3247.6,518.7z"/>
			<path class="st7" d="M3224.7,600.5v-74.4c0-4.3,3.7-7.8,8.2-7.8s8.2,3.5,8.2,7.8v74.4c0,4.3-3.7,7.8-8.2,7.8
				S3224.7,604.8,3224.7,600.5z"/>
		</g>
		<rect x="2686" y="940.3" class="st0" width="1093.8" height="32.5"/>
	</g>
	<g>
		<g>
			<polygon class="st8" points="3699.4,1117.3 3627.3,1117.3 3627.3,1617.7 3663.9,1617.7 			"/>
			<rect x="3627.3" y="1117.3" class="st8" width="372.7" height="103.8"/>
			<rect x="3592.7" y="1088.1" class="st9" width="407.3" height="32.6"/>
		</g>
		<g>
			<path class="st10" d="M2943.4,673.1c0,0-12-53.4-15.5-71.3c-5.9-29.9-33.5-68.8-33.5-68.8l121.9-43.5c0,0,12.2,60.3,18,77.3
				c6.3,18.2,30.9,62.8,30.9,62.8L2943.4,673.1L2943.4,673.1z"/>
			<g>
				<g>
					<path class="st11" d="M2990.7,634.7l27.7-27.7c21.5,18.4,33.7,32.2,57.7,46.9c42.6,26.1,65,38.8,65,38.8s105.2-10.2,157-18.7
						l13.9,115.9c-44.7-1.8-179.3-22.7-196.5-26.5c-20.4-4.5-41.5-39.4-65.2-62.6C3029.6,679.4,3009.9,657.3,2990.7,634.7
						L2990.7,634.7z"/>
					<path class="st12" d="M3061,710.9c-0.8-0.5-1.6-1-2.5-1.5c20.4,22.4,38.9,50,56.9,54c17.2,3.8,151.8,24.7,196.5,26.5L3298,674
						c-31.7,5.2-83.4,11.1-118.8,14.8c0.3,2.3-0.2,4.5-1.6,6.4c-4.6,6.2-5.6,9.6-7.8,16.5c-2,6.5-4.2,12.9-8.6,18.1
						c-11.4,13.7-32.8,12-47.9,7.1C3095.1,731,3077.5,720.7,3061,710.9L3061,710.9z"/>
					<path class="st13" d="M3308,646.5c28.3,76-19.8,157.4-19.8,157.4c-16.7-6.8-90.1-19.1-90.1-19.1c-22-38-6.9-99.9-6.9-99.9
						c8.3-1.3,21.9-6.3,50.1-17.4C3289,648.6,3308,646.5,3308,646.5L3308,646.5z"/>
					<g>
						<path class="st14" d="M3487.7,1556.6l43.9-2.6c0,0,33.9,28.4,36.2,47.3c1.8,14.1-13.1,16.3-13.1,16.3l-64.9-0.1
							c-2.9,0-5.4-2-6.1-4.8C3479.2,1595.1,3487.7,1556.6,3487.7,1556.6L3487.7,1556.6z"/>
						<path class="st14" d="M3358.4,1617.2c3.5,0,6.5-2.6,7-6.1c2.6-19-7.8-49-7.8-49l-56.2,3.5c0,0-13.5,10.5-40.1,22.2
							c-26.6,11.6-20.9,29.2-20.9,29.2L3358.4,1617.2L3358.4,1617.2z"/>
						<path class="st11" d="M3582.8,917.9c18,0.9,24.5-17.1,19.5-52.1c-9.3-65.9-38.8-114.5-62.8-176l-68.4,30.4
							c16.6,36,33.1,72.5,48.8,109c-2.8-1.9-17-4.4-19.8-6.4l-28.1,45.6C3497.1,886.8,3552.2,916.9,3582.8,917.9L3582.8,917.9z"/>
						<path class="st12" d="M3576.1,884.1c-3,16.2-19,21.6-34.3,22.9c15.2,6.2,29.8,10.5,41.1,10.8c18,0.9,24.5-17.1,19.5-52.1
							c-9.3-65.9-38.8-114.5-62.8-176l-68.4,30.4c15.2,32.8,30.1,66,44.5,99.2c2.9-0.4,6,0.5,8.8,3.1c9.7,9.5,25.3,16,36.8,25.5
							C3571.4,856.6,3578.7,870.3,3576.1,884.1L3576.1,884.1z"/>
						<path class="st15" d="M3519.2,668.7l-22.7,126.5l13.8,45.7l84.4-31.6C3559.7,677.8,3519.2,668.7,3519.2,668.7L3519.2,668.7z"
							/>
						<path class="st16" d="M3519.2,668.7l-22.7,126.5l13.8,45.7l84.4-31.6C3559.7,677.8,3519.2,668.7,3519.2,668.7L3519.2,668.7z"
							/>
						<path class="st11" d="M3440.6,500c18.4,26.8-15.6,94.9-25.6,103.5s-67,16.6-86.1,12.7c-19-3.9-16.9-60.8-17-80.3
							c0-19.6,8.5-49.6,8.5-49.6C3358.8,451.1,3417.9,467,3440.6,500z"/>
						<path class="st13" d="M3266.5,703.5c-13.9-59.7,101.1-76.4,149.5-72.6c48.4,3.8,115.2,39.6,123.4,54.4
							c8.1,14.7-22.6,111.6-25.3,146.5s9.1,121.9,5.3,230.7c-1.2,33.1-47.5,73.6-109.9,71s-114-35.2-119.5-54.4s3.7-152.1,5.7-177.8
							C3297.6,875.6,3266.5,703.5,3266.5,703.5L3266.5,703.5z"/>
						<path class="st16" d="M3295.3,890.9c0.3,4.5,0.4,8.1,0.2,10.4c-2,25.6-11.2,158.6-5.7,177.8c5.5,19.2,57.1,51.8,119.5,54.4
							s108.8-38,109.9-71c3.8-108.8,0.1-195.7,2.8-230.7s25.3-131.8,17.2-146.5s-74.9-50.5-123.4-54.4c-25.2-2-68.4,1.6-102.1,13.8
							c0.5,5.6,0.8,11.3,0.8,17c0.3,0.9,0.6,1.9,0.7,2.9c4.5,30.6,9.5,61.2,11.4,92.2c1.9,31.8,1.2,66.1-9.9,96.3
							C3311.8,866.9,3304.9,880,3295.3,890.9L3295.3,890.9z"/>
						<path class="st17" d="M3364.4,1565.5h-71.2c-3-49.4-18.7-318.3-12.9-508.4c0.1-12.7,4.8-108.8,6.1-121.1
							c28.3-30.6,65.7-97.5,68-110.5c4.7-26.8-44.1-178.9-44.8-179.9c10.3-4.8,14.2-5.1,26.5-7.4c1.9-0.4,82.1,92.3,82.1,92.3
							s33.5-91.5,33.9-92c0.6-0.6,21.2,3.8,31.5,9.7c1,35.5,3.1,109.3,1.7,164.3c-0.4,15,27.5,116,36.5,126.6
							c0.8,4.2,34.4,272.3,24.6,626.4h-63.1c-15.7-137.1-47.2-280.3-73.8-416.9c-1.1,0-22.1,119.2-25.6,162.6
							C3380.8,1351.5,3368.1,1517.6,3364.4,1565.5L3364.4,1565.5z"/>
						<path class="st14" d="M3338.2,1551.3c-0.3,4.7-0.7,9.5-1.4,14.2h27.6c3.7-47.9,16.4-214,19.6-254.3
							c3-36.8,18.6-128.2,23.9-155.1c-3,5.5-5.8,11.1-8.2,16.9c-0.1,0.2-0.2,0.5-0.3,0.8c-0.6,1.4-1.1,2.8-1.7,4.3
							c-1,2.6-2,5.2-2.9,7.8c-2.1,5.8-4.1,11.7-6.1,17.5c-3.8,11-7.8,21.9-11.8,32.9c-8.3,22.9-12.7,47-16.5,71
							c-0.4,2.3-0.7,4.6-1.1,6.9C3358.8,1332.1,3339.4,1529.5,3338.2,1551.3L3338.2,1551.3z"/>
						<path class="st18" d="M3410.7,1151.4c-0.1,0.2-0.2,0.4-0.4,0.6c0.2,1,0.4,2,0.6,3C3410.9,1153.8,3410.8,1152.6,3410.7,1151.4
							L3410.7,1151.4z"/>
						<path class="st14" d="M3509.3,1096.9c-2.2,46.2,9.1,311.7,11.5,339.4c2.3,26.7,3.5,53.6,2.3,80.4c-0.7,16.2-2,32.6-4.8,48.7
							h28.2c9.8-354.1-23.9-622.2-24.6-626.4c-1.5-1.7-3.6-5.9-6.1-11.7C3514.7,984,3511.9,1040.5,3509.3,1096.9L3509.3,1096.9z"/>
						<path class="st11" d="M3345.9,636.4c40.1,20.8,79.6-4.2,79.6-4.2l-8.7-51.9l-72.1,27.5L3345.9,636.4L3345.9,636.4z"/>
						<path class="st19" d="M3371,595.4c-1.8-0.9-21.4-38.3-22.7-44.4c-3.1-15-12-5.7-21-18.1c-10.6-14.5-8.3-25.5-8.3-43.5
							c0-7.4-19.1-9.7-11.8-20.5c10.8-19.8,110.9-45,137.5,3.4c20.4,37.1-10.8,104.5-24,126.1C3411.4,604.1,3392.3,606,3371,595.4
							L3371,595.4z"/>
						<path class="st11" d="M3328.2,543.1c-1,27.6,7.2,17.3,13.7,16.6c6.4-0.7,11.4-22.4-0.1-29.8S3328.2,543.1,3328.2,543.1
							L3328.2,543.1z"/>
					</g>
				</g>
				<g>
					<path class="st20" d="M2992.5,569.2l-35.1,41.4c0,0,22.1,35.2,39.4,34.9c5.8,6.7,11.7,13.4,17.6,20c2.9-3.1,8.3-7.3,11.2-10.4
						c7-7.5,17.1-15.9,21.5-25.3c-5-4.1-12-8.2-16.9-12.3c-0.1-4.1-0.5-21.3-2.2-31.2c-0.9-5.2-8.4-35.9-10.6-42.3
						c0,0-8.3,0.1-7.5,10.4c0.9,10.2,3.7,29.3-1.8,26.8S2992.5,569.2,2992.5,569.2L2992.5,569.2z"/>
					<path class="st20" d="M3003.2,582L3003.2,582c0.1,0.1,0.1,0.2,0.2,0.3c2.1,3,1.3,7.2-1.6,9.3c-3,2.1-7.1,1.4-9.2-1.7L2976,566
						l-8.2-12l-4.1-6.1l-2-3.1l-1-1.6l-1.1-1.8c-1.4-2.4-0.8-5.5,1.5-7.1c2.4-1.7,5.6-1.1,7.2,1.3l0.2,0.3l0.9,1.3l1,1.4l2.1,2.9
						l4.3,5.8l8.7,11.6L3003.2,582L3003.2,582z"/>
					<path class="st20" d="M2991.7,589.4L2991.7,589.4c0.1,0.1,0.2,0.2,0.2,0.2c2.4,2.8,2.2,7-0.6,9.4s-6.9,2.2-9.3-0.6
						c-6.5-7.4-12.9-14.8-19.3-22.3c-3.2-3.7-6.4-7.5-9.6-11.3c-1.6-1.9-3.2-3.8-4.7-5.8c-0.8-1-1.6-1.9-2.4-3l-1.2-1.6
						c-0.4-0.6-0.9-1.3-1.3-2c-1.4-2.2-1-5.2,1.1-6.9c2.2-1.8,5.5-1.5,7.3,0.7l0.6,0.7c0.3,0.3,0.5,0.6,0.8,1l1.1,1.3
						c0.7,0.9,1.6,1.8,2.3,2.7c1.6,1.8,3.2,3.6,4.8,5.4c3.3,3.6,6.6,7.2,9.9,10.7C2978.1,575.3,2984.9,582.3,2991.7,589.4
						L2991.7,589.4z"/>
					<path class="st20" d="M2981.2,600.2L2981.2,600.2c0.1,0.1,0.2,0.2,0.2,0.2c2.6,2.6,2.6,6.8,0,9.4c-2.6,2.6-6.7,2.6-9.3,0
						c-6.6-6.7-13.1-13.3-19.6-20.1c-3.2-3.4-6.5-6.8-9.7-10.2c-1.6-1.7-3.2-3.5-4.8-5.3c-0.8-0.9-1.6-1.8-2.4-2.8l-1.2-1.5
						c-0.5-0.6-0.9-1.3-1.4-2c-1.4-2.1-1.1-5,0.8-6.7c2.1-1.9,5.4-1.8,7.3,0.4l0.9,1c0.2,0.3,0.4,0.5,0.6,0.8l1.1,1.2
						c0.7,0.8,1.5,1.6,2.3,2.4c1.6,1.6,3.2,3.2,4.8,4.8c3.3,3.2,6.6,6.4,10,9.6C2967.6,587.7,2974.4,594,2981.2,600.2L2981.2,600.2z
						"/>
					<path class="st20" d="M2979.8,615.9L2979.8,615.9c0.1,0.1,0.2,0.2,0.3,0.2c2.9,2.2,3.4,6.4,1.2,9.3c-2.2,2.9-6.4,3.5-9.2,1.2
						c-7.4-5.8-14.7-11.5-22-17.4c-3.6-2.9-7.3-5.9-10.9-8.9c-1.8-1.5-3.6-3.1-5.4-4.7c-0.9-0.8-1.8-1.6-2.7-2.5l-1.4-1.3
						c-0.6-0.6-1.1-1.2-1.6-1.8c-1.6-1.9-1.7-4.8,0-6.8c1.8-2.2,5.1-2.4,7.2-0.6l1,0.8c0.3,0.2,0.5,0.5,0.7,0.7l1.2,1
						c0.8,0.7,1.7,1.4,2.5,2.1c1.8,1.4,3.6,2.8,5.4,4.2c3.6,2.8,7.4,5.5,11.1,8.2C2964.7,605.1,2972.3,610.5,2979.8,615.9
						L2979.8,615.9z"/>
				</g>
			</g>
		</g>
		<g>
			<path class="st21" d="M3817,826.4c-0.3,0-0.6,0.4-0.6,0.8v7.9c0,0.4,0.3,0.8,0.6,0.8l10.2,0.7v-10.9L3817,826.4L3817,826.4z"/>
			<g>
				<path class="st20" d="M3822.3,962.5L3822.3,962.5v111.9l10.5,13.7h66.2l10.5-13.7V962.5l-19.7-30.6l-8.8-50h-30.2l-8.8,50
					L3822.3,962.5L3822.3,962.5z"/>
				<path class="st21" d="M3826.6,826.7v9c0,1,0.8,1.9,1.8,1.9h2.8v-12.7h-2.8C3827.4,824.8,3826.6,825.6,3826.6,826.7z"/>
				<g>
					<path class="st21" d="M3841.1,846.6c-1.7,11.6-12.3,28.3-17.9,36.5c-1.2,1.7,0.6,4.1,2.4,3.2c11.2-5.8,24.7-24.5,24.7-24.5
						C3850.3,853.9,3841.1,846.6,3841.1,846.6L3841.1,846.6z"/>
					<path class="st0" d="M3884.3,823.2h-53l-0.1,0.1v16.3l0,0c0.6,0.3,20.1,12.2,20.1,31.6h29.1v-8.7c0-3,2.2-5.4,5.1-5.5
						c5,0,13.9-0.1,27.2,0.1c0.8,0,1.6-0.3,2.3-0.9c1.5-1.4,1.5-3.9,0.1-5.3l-26.5-26C3887.2,823.8,3885.8,823.2,3884.3,823.2
						L3884.3,823.2z"/>
					<path class="st21" d="M3849.4,872.9v10.7c0,1,0.7,1.8,1.6,1.8h29.4c0.9,0,1.6-0.8,1.6-1.8v-10.7c0-1-0.7-1.8-1.6-1.8H3851
						C3850.1,871.2,3849.4,872,3849.4,872.9z"/>
				</g>
			</g>
			<rect x="3822.3" y="979.4" class="st0" width="64.7" height="77.4"/>
		</g>
		<g>
			<rect x="2753.2" y="1435.5" class="st22" width="79.4" height="80.3"/>
			<rect x="2600.8" y="1506.7" class="st22" width="370.7" height="12.9"/>
			<g>
				<path class="st22" d="M2765.4,1207.6c-0.9,0-1.9-0.2-2.8-0.7c-3.2-1.6-4.5-5.5-2.9-8.7l77.1-157.8c1.6-3.2,5.4-4.5,8.6-2.9
					c3.2,1.6,4.5,5.5,2.9,8.7l-77.1,157.8C2770,1206.3,2767.8,1207.6,2765.4,1207.6L2765.4,1207.6z"/>
				<path class="st22" d="M2817.8,1076.6c-0.9-0.4-1.2-1.5-0.8-2.4l26.8-53.6c0.4-0.9,1.5-1.2,2.3-0.8l13.3,6.8
					c0.9,0.4,1.2,1.5,0.8,2.4l-26.8,53.6c-0.4,0.9-1.5,1.2-2.4,0.8L2817.8,1076.6L2817.8,1076.6z"/>
				<path class="st23" d="M2799.7,1226.4c0,6-5.2,10.9-11.7,10.9l0,0c-19.1,0-34.7,13.9-35.5,31.6l-3.4,76.3h-64.7v-164.3
					c0-7.5,2.7-14.8,7.7-20.7l32.3-38.2c14.3-16.9,42.7-14.2,52.9,5.1l18.7,35.2c2.4,4.6,3.7,9.7,3.7,14.8V1226.4L2799.7,1226.4z"/>
				<g>
					<g>
						<path class="st21" d="M2810.1,1499.9l-3.6-248.2h212l-3.6,248.2c-0.2,5.9-4.9,10.6-10.8,10.6h-183.2
							C2815.1,1510.6,2810.3,1505.9,2810.1,1499.9z"/>
						<polygon class="st24" points="3018.2,1266.1 3018.6,1251.8 2806.6,1251.8 2806.9,1266.1 						"/>
						<rect x="2795.6" y="1237.6" class="st21" width="234" height="16.2"/>
						<path class="st21" d="M2912.7,1294c-9.9,0-18-8.1-18-18.2v-38.2h36v38.2C2930.7,1285.9,2922.6,1294,2912.7,1294L2912.7,1294
							L2912.7,1294z"/>
					</g>
					<ellipse class="st25" cx="2912.6" cy="1275" rx="17" ry="17.2"/>
					<polygon class="st25" points="2916.8,1267 3034.3,1376.8 3024.8,1387.2 2907.3,1277.4 					"/>
				</g>
				<g>
					<g>
						<path class="st15" d="M2782.9,1499.9l3.6-248.2h-212l3.6,248.2c0.2,5.9,5,10.6,10.8,10.6h183.2
							C2778,1510.6,2782.8,1505.9,2782.9,1499.9z"/>
						<polygon class="st23" points="2786.1,1266.1 2786.5,1251.8 2574.5,1251.8 2574.9,1266.1 						"/>
						<rect x="2563.5" y="1237.6" class="st15" width="234" height="16.2"/>
						<path class="st15" d="M2680.3,1292.1c9.5,0,17.2-7.8,17.2-17.3v-37.2h-34.3v37.2C2663.1,1284.4,2670.8,1292.1,2680.3,1292.1
							L2680.3,1292.1L2680.3,1292.1z"/>
					</g>
					<ellipse class="st25" cx="2680.5" cy="1275" rx="17" ry="17.2"/>
					<polygon class="st25" points="2676.3,1267 2558.7,1376.8 2568.2,1387.2 2685.8,1277.4 					"/>
				</g>
			</g>
			<path class="st26" d="M2758.1,1228.7l-36,261.5l15.8,2.2l10.5-76.3h96.4l10.5,76.3l15.8-2.2l-36-261.5
				c-0.3-13.4-11.2-24.2-24.5-24.2h-27.9C2769.2,1204.5,2758.4,1215.3,2758.1,1228.7L2758.1,1228.7z M2793,1399.9h-42.4l8.2-59.6
				h75.5l8.2,59.6H2793L2793,1399.9z"/>
			<g>
				<g>
					<ellipse class="st27" cx="3016.3" cy="1580.1" rx="37.2" ry="37.7"/>
					<ellipse class="st28" cx="3016.3" cy="1580.1" rx="19.2" ry="19.4"/>
				</g>
				<path class="st25" d="M2997.4,1525.5h29.3v12.9l1.3,41.1c0,6.7-5.4,12.1-12,12.1l0,0c-5.2,0-9.9-3.4-11.4-8.5l-14-44.7h-19.2
					v-21h25.9L2997.4,1525.5L2997.4,1525.5z"/>
			</g>
			<g>
				<g>
					<ellipse class="st27" cx="2576.7" cy="1580.1" rx="37.2" ry="37.7"/>
					<ellipse class="st28" cx="2576.7" cy="1580.1" rx="19.2" ry="19.4"/>
				</g>
				<path class="st25" d="M2595.6,1525.5h-29.3v12.9l-1.3,41.1c0,6.7,5.4,12.1,12,12.1l0,0c5.2,0,9.8-3.4,11.4-8.5l14-44.7h19.2v-21
					h-25.9L2595.6,1525.5L2595.6,1525.5z"/>
			</g>
			<g>
				<path class="st22" d="M3066.5,1509.2v14.8c0,2.6-2.1,4.7-4.7,4.7h-98.6c-2.6,0-4.7-2.1-4.7-4.7v-14.8c0-2.6,2.1-4.7,4.7-4.7
					h98.6C3064.4,1504.5,3066.5,1506.6,3066.5,1509.2z"/>
				<path class="st22" d="M2634.5,1509.2v14.8c0,2.6-2.1,4.7-4.7,4.7h-98.6c-2.6,0-4.7-2.1-4.7-4.7v-14.8c0-2.6,2.1-4.7,4.7-4.7
					h98.6C2632.4,1504.5,2634.5,1506.6,2634.5,1509.2z"/>
			</g>
			<path class="st22" d="M2785.8,1427.7c-4.8-2.2-7-7.9-4.9-12.8l239.5-547.5c2.1-4.9,7.8-7.1,12.7-4.9s7,7.9,4.9,12.8l-239.5,547.5
				c-1.6,3.6-5.1,5.8-8.8,5.8C2788.3,1428.5,2787,1428.2,2785.8,1427.7z"/>
			<path class="st22" d="M3028,1475.6c11.4,0,20.7,9.3,20.7,20.7v26.3h-504.2v-26.3c0-11.4,9.3-20.7,20.7-20.7H3028L3028,1475.6z"/>
		</g>
		<g>
			<path class="st29" d="M2149.1,806.3l-70.2-13c0,32.3,16.9,127.4,16.2,132.7c1.2,55.3,1.7,109.6,8.1,164.3l34.8-0.8
				c5.4-55.5,20.8-100.4,17.6-155.9C2152.5,880.5,2152.5,848.4,2149.1,806.3L2149.1,806.3z"/>
			<path class="st30" d="M2124.8,1055.9c-3.9,11.9-8.8,23.5-15.1,34.2l28.3-0.7c5.4-55.5,20.8-100.4,17.6-155.9
				c-3.1-53.1-3.1-85.2-6.5-127.3l-70.2-13c0,19.2,5.9,60.4,10.6,92c1.3,0.2,2.7,0.7,3.8,1.5c11.6,8.4,28.7,9.3,39.9,20.5
				c11.5,11.4,7.4,32,6.3,46.5c-1.2,15.9-1.4,31.8-3.4,47.8C2133.9,1019.9,2130.6,1038.2,2124.8,1055.9L2124.8,1055.9z"/>
			<path class="st20" d="M2141.2,1070.2c-13.1-1.1-28.2-0.5-41.2-0.4c0.6,6.8,4.4,31.2,5.2,38.1l32.8-11.2
				C2138.6,1090.4,2140.4,1076.1,2141.2,1070.2L2141.2,1070.2z"/>
			<path class="st13" d="M2075.3,879.8c5.3,0.2,67,5,85.1,3.1c-0.8-21-9.6-54.6-11.4-76.7l-71.8-24.9
				C2073.7,820,2076.6,847.5,2075.3,879.8L2075.3,879.8z"/>
			<g>
				<path class="st29" d="M2325.9,999.8c-38.2-2.3-69.1,32.5-63.9,70.5c15,104.3,23.6,209.3,38.1,313.6c5.2,37.5,10.5,75,15.7,112.5
					c2.8,20.6,3.9,51.9,9.4,72c7.6,28.2,42,36.1,44.6,7.6c2.6-29.3,5.4-171,4.9-200.4c-0.8-53.7-7.5-62.5-7.5-112.2
					c7.3-77,14.7-119.7,15.7-197.1C2383.4,1032.3,2361.2,1001.9,2325.9,999.8L2325.9,999.8z"/>
				<path class="st29" d="M2184,1036.9c-22.9,110.7-34.5,188.4-43.1,255.9c-4.9,38.5-19.3,255.8-17.2,282.1
					c2.2,27.1,36,18.8,43.3-8.2c4.6-16.9,27.1-108.4,37.5-180.2c6.6-45.3,3-72.7,10.8-95.8c10.8-61.4,77.4-180.3,93-217.5
					c12.7-30.2,4.4-65.3-25.4-81.7C2247.5,972,2192.5,997.1,2184,1036.9L2184,1036.9z"/>
				<path class="st31" d="M2325.9,999.8c-38.2-2.3-69.1,32.5-63.9,70.5c15,104.3,23.6,209.3,38.1,313.6c5.2,37.5,10.5,75,15.7,112.5
					c1.8,12.9,2.9,29.9,4.8,45.8h50.9c2-53,3.5-143.8,3.2-166.6c-0.8-53.7-7.5-62.5-7.5-112.2c7.3-77,8.3-119.7,9.3-197.1
					C2376.9,1032.3,2361.2,1001.9,2325.9,999.8L2325.9,999.8z"/>
				<path class="st24" d="M2325.9,999.8c-38.2-2.3-69.1,32.5-63.9,70.5c10.4,72.4,17.7,145.1,26.1,217.7c7.8-2.6,16.7-1.1,24.1,7.1
					c59.5,66,55.2,159.9,42.4,247.2h16.9c2-53,3.5-143.8,3.2-166.6c-0.8-53.7-7.5-62.5-7.5-112.2c7.3-77,8.3-119.7,9.3-197.1
					C2376.9,1032.3,2361.2,1001.9,2325.9,999.8L2325.9,999.8z"/>
				<path class="st31" d="M2184,1036.9c-22.9,110.7-34.5,188.4-43.1,255.9c-4,31.5-14.2,179.5-16.7,247.8l48.5,3.3
					c8.7-35.7,23.8-102.3,31.7-157.4c6.6-45.3,6.2-72.7,14-95.8c10.8-61.4,74.2-180.3,89.8-217.5c12.7-30.2,4.4-65.3-25.4-81.7
					C2247.5,972,2192.5,997.1,2184,1036.9L2184,1036.9z"/>
				<path class="st24" d="M2282.9,991.5c-35.4-19.5-90.4,5.6-98.9,45.4c-20.7,100.2-32.2,173.4-40.6,236.4
					c15.1-6.9,37.6,0.7,38.4,22.8c2.9,78.1,1.2,167.9-23.9,246.8l14.8,1c8.7-35.7,23.8-102.3,31.7-157.4c6.6-45.3,6.2-72.7,14-95.8
					c10.8-61.4,74.2-180.3,89.8-217.5C2321,1042.9,2312.7,1007.9,2282.9,991.5L2282.9,991.5z"/>
				<path class="st32" d="M2365.6,981.9c0,0-172.5-8-174.7,13.1c-4.3,40.3-9.4,90.2-9.4,123.5c0,18.4,74.7,34.2,115.9,34.2
					s74.6-32.9,84.7-88.7C2388.2,1030,2365.6,981.9,2365.6,981.9L2365.6,981.9z"/>
				<path class="st13" d="M2260.5,669.9c-11.5,1.4-131.8,24.7-180,100.9c-2,3.1-3.1,6.8-3.2,10.5c-0.5,11.6-4.8,37.6,4.2,45.3
					c11.7,10.1,51.9,35.7,51.9,35.7s44.7,35.6,50.8,72.4s1,108.6,1,108.6s91.2,27.1,151.9,2.2c20.2-8.3,34.5-41.4,34.5-41.4
					s-18.3-66.4-45.3-110.8c-8.5-13.9-11.1-197.4-19.5-204.3C2287.9,673.9,2285.8,666.8,2260.5,669.9L2260.5,669.9z"/>
				<path class="st25" d="M2054.8,1591.8c-19.7,4.7-10.6,25.3-10.6,25.3h116.2c21.2-6.2,6.8-53.3,6.8-53.3
					c-22.6,0-43.8-1.6-43.8-1.6S2099.3,1581.2,2054.8,1591.8L2054.8,1591.8z"/>
				<path class="st25" d="M2293.2,1591.8c-17.9,9.6-10.6,25.3-10.6,25.3h87.8c21.2-6.2,0.5-53.3,0.5-53.3c-22.6,0-47.1,0.5-47.1,0.5
					S2314.4,1580.4,2293.2,1591.8L2293.2,1591.8z"/>
				<path class="st17" d="M2264.4,767.3c-2.4,0.9-110.8,31.8-131.8,33.8c-2.1,19.5-3.3,29.6-2.7,34.1c3.2,23.8,21.9,51.4,29.4,64.5
					s23.7,38.1,24.8,44.7c1.1,6.5-51.7,298.4-51.7,298.4c128.2,46.8,283.3,10.9,283.3,10.9s-28-157-31.2-195
					c-7.5-89.3-23.2-123.6-50.1-154.1c-8.6-9.8-16.2-66.4-16.2-66.4s-32.9-26.7-51.2-65.9C2266.4,771,2265.5,769.3,2264.4,767.3
					L2264.4,767.3z"/>
				<path class="st33" d="M2318.2,838.1c0,0-23.2-18.9-41.5-48.2c-2,22.9,2.3,46.9,6.6,69.1c5.6,29,12.4,57.8,18.5,86.8
					c14.4,68.9,25.8,137.5,24.3,208.2c-0.8,35.9-5.8,76.8-20,112.5c63.1-2.1,109.6-12.8,109.6-12.8s-28-157-31.2-195
					c-7.5-89.3-23.2-123.6-50.1-154.1C2325.7,894.8,2318.2,838.1,2318.2,838.1L2318.2,838.1z"/>
				<path class="st7" d="M1844.7,1556.6c-28.3,13.9-28.3,41.7-19.4,50.2c12.4,12,27.2,10.9,27.2,10.9H2020c16.4-2.4,2.7-7.7-0.9-8.8
					c-22.4-7.1-61.2-14.7-67-25.7c-12.9-24.5-34.7-24.9-39.1-28.7C1913,1554.4,1888.8,1534.9,1844.7,1556.6L1844.7,1556.6z"/>
				<path class="st21" d="M2372.6,756.2l-482,729.3c-3.3,5-2,11.8,3,15.2c1.9,1.2,3.9,1.8,6,1.8c3.5,0,6.9-1.7,9-4.9l482-729.3
					c3.3-5,2-11.8-3-15.2C2382.7,749.8,2376,751.2,2372.6,756.2L2372.6,756.2z"/>
				<g>
					<path class="st33" d="M1941.1,1461.8l-25.7-18.9l-44.1,61.2c-4,5.5-2.8,13.2,2.6,17.2l6.1,4.5c5.4,4,13,2.8,17-2.7
						L1941.1,1461.8L1941.1,1461.8z"/>
					<path class="st33" d="M1880.8,1496.4c-8.8,0-15.9,7.2-15.9,16.1v35.3h31.8v-35.3C1896.7,1503.6,1889.6,1496.4,1880.8,1496.4
						L1880.8,1496.4z"/>
					<path class="st33" d="M1860.7,1541c-9.5,0-17.1,7.1-17.1,15.8h74.5c0-8.7-7.7-15.8-17.1-15.8H1860.7L1860.7,1541z"/>
				</g>
				<path class="st6" d="M1903.7,1560.4c-3.1-1.1-5-1.5-5-1.5l-0.3,0.6c0,0,1.5,1.1,4.2,3c2.6,2,6.4,4.7,10.6,8.1
					c2.1,1.8,4.3,3.6,6.4,5.8c2.1,2.1,4.1,4.5,5.4,7c0.2,0.3,0.3,0.6,0.4,0.9l0.5,1.2c0.1,0.4,0.5,1,0.7,1.5c0.3,0.5,0.5,1,0.8,1.4
					c1.2,1.8,2.6,3.3,4.1,4.7c3,2.7,6.4,4.8,9.8,6.6c6.9,3.6,14,6,20.8,8s13.2,3.4,18.7,4.4c11,2.1,18.4,2.9,18.4,2.9l0.1-0.7
					c0,0-7.3-1.4-18-4.4c-5.3-1.5-11.5-3.5-18-5.8c-6.5-2.4-13.3-5.2-19.4-8.9c-3.1-1.9-5.9-4-8.2-6.4c-1.1-1.2-2.1-2.5-2.8-3.8
					l-0.5-1c-0.1-0.3-0.2-0.4-0.4-0.9l-0.4-1.3c-0.2-0.5-0.4-1-0.6-1.5c-1.8-3.9-4.4-6.6-7-8.8c-2.6-2.2-5.2-4-7.7-5.5
					C1911.2,1563.2,1906.9,1561.4,1903.7,1560.4L1903.7,1560.4z"/>
				<path class="st6" d="M1884.7,1562.8c-2.3-1.3-3.7-1.7-3.7-1.7l-0.3,0.6c0,0,1,1,2.7,2.9c1.6,1.9,3.7,4.7,5.7,8.2
					c1,1.8,1.9,3.8,2.8,5.9s1.5,4.5,2.1,6.9c0.3,1.2,0.5,2.5,0.8,3.7c0.2,1.1,0.3,1.4,0.6,2.3c0.3,0.9,0.7,1.8,1.1,2.5
					c1.6,3,3.9,5.4,6.3,7.3c4.8,3.9,10.2,6.5,15.3,8.5c5.1,2,10,3.4,14.2,4.3s7.8,1.5,10.3,1.7s4,0.2,4,0.2l0.1-0.7
					c0,0-1.4-0.2-3.8-0.7c-2.4-0.6-5.9-1.5-9.9-2.9s-8.6-3.2-13.3-5.6c-4.7-2.3-9.5-5.3-13.2-9c-1.8-1.9-3.4-3.9-4.2-6.1
					c-0.2-0.6-0.3-1-0.5-1.4c-0.1-0.4-0.3-1.5-0.4-1.8c-0.3-1.5-0.5-2.9-0.9-4.3c-0.8-2.8-1.8-5.4-3.1-7.8c-1.2-2.4-2.7-4.4-4.2-6.2
					c-1.5-1.7-3-3.2-4.4-4.3C1887.2,1564.3,1885.8,1563.4,1884.7,1562.8L1884.7,1562.8z"/>
				<path class="st6" d="M1854.5,1569.4c-1.2,1.8-2.2,3.9-3,6.4c-0.8,2.4-1.1,5.3-0.8,8.2c0.3,2.9,1.3,5.8,2.9,8.4s3.5,4.8,5.8,6.5
					c1,0.8,2.1,1.7,3.3,2.5c1.2,0.9,2.3,1.5,3.4,2.2c2.3,1.4,4.6,2.6,6.8,3.7c4.5,2.2,8.8,4,12.5,5.3c7.4,2.7,12.5,4,12.5,4l0.2-0.6
					c0,0-4.8-2.1-11.7-5.8c-3.4-1.9-7.4-4-11.5-6.6c-2-1.3-4.1-2.7-6-4.2c-1-0.8-2-1.6-2.8-2.4c-0.9-0.8-1.7-1.6-2.6-2.6
					c-1.6-1.8-3.1-3.6-4.2-5.5s-1.9-3.9-2.2-5.8c-0.9-4,0.1-8.1,1.4-11.5c1.4-3.4,3.1-6.2,4.3-8.1c1.3-1.9,2.1-2.9,2.1-2.9l-0.4-0.5
					c0,0-1.2,0.6-3.1,2.1C1859.4,1563.5,1856.8,1565.8,1854.5,1569.4L1854.5,1569.4z"/>
				<g>
					<path class="st29" d="M2167.1,635.6c-1.7-2.3-28,27-28,27s0.1,0.2,0.2,0.5c0.1,0.3,0.3,0.8,0.6,1.4c0.5,1.3,1.3,3.2,2.2,5.4
						c1.7,4.5,3.9,10.7,5.8,16.8c1.9,6.1,4.4,21.5,4.4,21.5c29.4,36.5,53.1-5.4,54-19.2c0,0-11.6-16.1-15-23
						C2183.7,650.5,2170.4,640.2,2167.1,635.6L2167.1,635.6z"/>
					<path class="st30" d="M2167.1,635.6c-1.7-2.3-28,27-28,27s0.1,0.2,0.2,0.5c0.1,0.3,0.3,0.8,0.6,1.4c0.5,1.3,1.3,3.2,2.1,5.4
						c1.7,4.5,4,10.7,5.8,16.8c1.6,5.2,3.8,17.8,4.5,21.5c4.5-3.9,31.1-16.6,22.4-64.6C2171.3,640.2,2168.4,637.5,2167.1,635.6
						L2167.1,635.6z"/>
					<g>
						<path class="st29" d="M2161.2,565.6c-20.6-12.6-92.2,26.9-92.2,26.9s15.3,103.7,59.5,111c20.1,3.3,35.5-14,39.5-25.1
							C2181.4,641.1,2187.6,581.7,2161.2,565.6L2161.2,565.6z"/>
						<path class="st34" d="M2147.4,537.5c-30.2-4.3-56.6,0.9-77.1,24.4c-27.3,31.5-3.3,69.6-3.3,69.6s59-17.9,63.3-13
							c7.3,8.4,19.7,3,19.7,3s7.6-24.3,17.6-11.5c10.1,12.9,4.6,26.2-1.8,26.1L2188,661c0,0,8.9-36,10.1-52.9
							C2199.5,587.5,2181.9,542.4,2147.4,537.5L2147.4,537.5z"/>
						<path class="st34" d="M2163.6,550.7c0,0-7.5,17.7,16,41.1c13.8,13.7,10.4,16.8,18.4,18.7c19.4,4.7,27.5-46.7,13.1-64.7
							C2186.6,515.4,2163.6,550.7,2163.6,550.7z"/>
					</g>
				</g>
				<path class="st17" d="M2264.4,767.3c-2.8-3.2-53.2-85.8-53.2-85.8l-16.1-8.7l52.1,104.8L2264.4,767.3L2264.4,767.3z"/>
				<path class="st17" d="M2150.5,699L2150.5,699c-3.5,3.9-5.7,8.7-6.4,13.9l-11.8,91.5h17.3l2.9-95.6L2150.5,699L2150.5,699z"/>
				<path class="st35" d="M2139.7,1140.9v-15.7c0-2.7,2.1-4.8,4.8-4.8c2.6,0,4.8,2.2,4.8,4.8v15.7c0,2.7-2.2,4.8-4.8,4.8
					C2141.8,1145.8,2139.7,1143.6,2139.7,1140.9z"/>
				<path class="st35" d="M2133.2,1153.6v-15.7c0-2.7,2.1-4.8,4.8-4.8c2.6,0,4.8,2.2,4.8,4.8v15.7c0,2.7-2.2,4.8-4.8,4.8
					C2135.3,1158.4,2133.2,1156.2,2133.2,1153.6z"/>
				<path class="st20" d="M2134.9,1081.3l-30.7-2.5c0,0-0.1,16.5-3.6,34c-3.7,18.6-5.6,42.3-4.7,48c0.8,5.2,4.2,7.9,4.2,7.9l10-13.2
					l2.3,14.5c4.3,0.9,7.9,1.3,9.6-5.7s1.7-21.4,1.7-21.4s10.4-18.4,14.4-25.9C2146.8,1100.3,2134.9,1081.3,2134.9,1081.3
					L2134.9,1081.3z"/>
				<path class="st35" d="M2117.8,1155.5c-1.2,4.5-2.9,9.3-5.8,13.1l0.2,1.5c4.3,0.9,7.9,1.3,9.6-5.7s1.7-21.4,1.7-21.4
					s10.4-18.4,14.4-25.9c5.2-9.8,3.2-20.3,0.8-27.3c0.8-6.8,1.9-15.2,2.4-19.5c-2-0.2-4-0.3-6.1-0.4c-0.3,0.8-0.6,1.5-1.1,2.3
					c-5.3,8.7-4.8,19.3-5.8,29.1c-1.2,12.5-4.8,24.9-7.4,37.2c-0.1,0.4-0.2,0.7-0.2,1l0,0c-0.3,2.1-0.5,4.2-0.9,6.4
					C2119.2,1149,2118.6,1152.3,2117.8,1155.5L2117.8,1155.5z"/>
				<path class="st35" d="M2128.4,1158.8c0,0,0,6.6-1.5,9.6l5.4,1c0.3,0.1,0.6,0.1,0.9,0.1c1.1,0,2.2-0.4,3.1-1.1
					c1.1-0.9,1.7-2.3,1.7-3.7V1149c0-2.7-2.1-4.8-4.8-4.8c-2.6,0-4.8,2.2-4.8,4.8L2128.4,1158.8L2128.4,1158.8z"/>
				<path class="st35" d="M2124.3,1171.5c0,0-1.9,2.7-4,6.2l6.8,1.3c0.3,0.1,0.6,0.1,0.9,0.1c1.1,0,2.2-0.4,3.1-1.1
					c1.1-0.9,1.7-2.3,1.7-3.7v-15.7c0-2.7-2.1-4.8-4.8-4.8c-2.6,0-4.8,2.2-4.8,4.8L2124.3,1171.5L2124.3,1171.5z"/>
			</g>
			<g>
				<path class="st29" d="M2269.6,748.7c27.6,3.5,71.6,2.2,98.5,5.6c0,0-58.8,73.9-72.1,92.5l32.7,15.4
					c117.9-89.3,132.2-111.6,128.7-131.7c-2.7-15.5-31-23.5-44-28c-39-13.3-99.6-21.5-144.3-30.8L2269.6,748.7L2269.6,748.7z"/>
				<path class="st30" d="M2410.3,775.6c-4.2,11-7.9,22.5-13.4,33c55.4-46.2,63-62.7,60.3-77.9c-2.7-15.5-31-23.5-44-28
					c-21.5-7.3-49.7-13.1-78.1-18.4c5.6,5.7,10.7,11.8,15.1,18.5c0,0.1-8.4,1.1-8.3,1.2c11.5,0.6,31.3,1.4,41.9,5.9
					c10.9,4.7,20.1,11.6,26.4,22C2418.7,745.8,2415.8,761.3,2410.3,775.6L2410.3,775.6z"/>
				<path class="st13" d="M2353.9,684.4c-26.8-6.2-81.2-23.4-101.6-11.6l12,94.5c21,2.6,53.1-10.8,75.3-9.2
					C2339.9,757.3,2347.1,704.1,2353.9,684.4L2353.9,684.4z"/>
			</g>
			<path class="st20" d="M2275.6,879.1c-2.3,5.6-12.8,29.3-12.8,29.3c7.7,3.9,12-1,14-3.5c15.6-19.4,17.6-13.1,17.6-13.1
				c8.6,5.8-5.2,30.3-5.2,30.3s3.6,5.8,14.2-3.8c9.5-8.6,23.4-16.4,27-21.5c2.2-3,2.5-26.4,2.5-37.7c9.1-6.9,17.5-13.4,25.3-19.5
				c-5.2-6.3-31.7-30.5-35.7-31.7c-6,7.7-11.7,16.2-16.4,23.5c-7.5,4.6-17.4,13.3-24.1,29.5C2279.6,866.6,2278.8,871.1,2275.6,879.1
				L2275.6,879.1z"/>
			<path class="st35" d="M2320.1,874c-4.9,15.4-12.9,33.5-27.5,41.2c-1.8,4-3.4,6.9-3.4,6.9s3.6,5.8,14.2-3.8
				c9.5-8.6,23.4-16.4,27-21.5c2.2-3,2.5-26.4,2.5-37.7c9.1-6.9,17.5-13.4,25.3-19.5c-1.5-1.8-4.8-5.2-8.9-9.1
				c-1.5,2.2-3.8,3.9-6.5,4.9c-4.1,1.6-7.8,4-9.9,6c-0.5,0.5-1.1,1.1-1.6,1.6c-0.2,0.2-0.3,0.4-0.4,0.5c-0.1,0.2-0.2,0.3-0.4,0.6
				c-1.1,1.8-2.1,3.6-3,5.5c0.2-0.4-1.2,3.4-1.4,4c-0.6,2-1.2,4-1.8,6C2323,864.6,2321.6,869.3,2320.1,874L2320.1,874z"/>
			<polyline class="st35" points="2110.1,1156.8 2105.6,1161.3 2108.2,1131.3 2110,1155.6 			"/>
		</g>
		<g>
			<path class="st4" d="M3657.4,1088.1v-39.9l0,0c0-2.4,2.7-3.9,4.7-2.5l4.5,3.1c4.3,2.9,9.9,2.9,14.2,0l3.7-2.5
				c3.3-2.2,7.6-2.2,10.9,0l3.7,2.5c4.3,2.9,9.9,2.9,14.2,0l3.7-2.5c3.3-2.2,7.6-2.2,10.9,0l3.7,2.5c4.3,2.9,9.9,2.9,14.2,0l3.7-2.5
				c3.3-2.2,7.6-2.2,10.9,0l3.7,2.5c4.3,2.9,9.9,2.9,14.2,0l4.5-3.1c2-1.4,4.7,0.1,4.7,2.5l0,0v39.9H3657.4L3657.4,1088.1z"/>
			<rect x="3657.4" y="1076.1" class="st22" width="130.3" height="11.9"/>
		</g>
		<g>
			<g>
				<path class="st36" d="M1687.8,1102.4c-14.1,11.7-26.4,28.8-31.3,61.3s30.7,57.3,30.7,57.3c63.6-10.7,61-84.1,53.4-102
					s-14-41.3-14-41.3S1701.8,1090.8,1687.8,1102.4L1687.8,1102.4z"/>
				<g>
					<path class="st37" d="M1671.4,1266.6c-1.2,8-2.5,16-3.6,24.1c-3.9,32.2-6,64.7-5.4,97.2l0.2,12.2l0.7,12.2
						c0.3,4.1,0.4,8.1,0.8,12.2l1.2,12.2c1.8,16.3,4,32.2,8,48.6l10.6-2.8c-3.5-15.1-5.9-31.1-7.6-46.9c-0.8-7.9-1.6-15.9-2.1-23.9
						l-0.8-12l-0.4-12c-0.8-32,0.5-64,3.6-96c0.9-8,2-15.9,3-23.9c0.5-4,1-8,1.6-11.9l2-11.9l3.9-23.8c1.6-7.9,3.2-15.8,4.7-23.7
						l2.3-11.9c0.9-3.9,1.9-7.8,2.8-11.7l5.8-23.5c0.5-1.9,0.9-3.9,1.5-5.9l1.8-5.8l3.7-11.5l3.8-11.5l1.1-3.2h-0.1l-1.1,3.2
						l-4,11.4l-4.1,11.4c-1.4,3.8-2.8,7.6-3.9,11.4l-7.5,23.1c-1.2,3.9-2.6,7.7-3.8,11.6l-3.2,11.7c-2.2,7.8-4.3,15.6-6.4,23.5
						c-1.9,7.9-3.4,15.8-5,23.8l-2.4,11.9C1672.6,1258.6,1672.1,1262.7,1671.4,1266.6L1671.4,1266.6z"/>
					<path class="st37" d="M1667.3,1290.7L1667.3,1290.7c-4.2,34.5-6,66.4-5.4,97.3l0.2,12.2l0.7,12.2c0.1,1.4,0.2,2.9,0.2,4.3
						c0.1,2.6,0.3,5.3,0.5,7.9l1.2,12.2c1.7,15.3,3.9,31.8,8,48.6c0,0.1,0.1,0.3,0.3,0.3c0.1,0,0.2,0.1,0.3,0.1h0.1l10.6-2.8
						c0.3-0.1,0.5-0.4,0.4-0.7c-3.1-13.3-5.6-28.6-7.6-46.8l-0.1-0.5c-0.8-7.6-1.6-15.5-2-23.3l-0.8-12l-0.4-12
						c-0.8-31.2,0.4-63.4,3.6-95.9c0.6-5.1,1.3-10.3,1.9-15.4c0.4-2.8,0.7-5.7,1.1-8.5c0.2-1.4,0.4-2.8,0.5-4.2
						c0.3-2.5,0.7-5.2,1.1-7.7l2-11.8l3.9-23.8c1.6-7.9,3.2-15.8,4.7-23.6l2.3-11.9c0.6-2.6,1.2-5.1,1.8-7.7c0.3-1.3,0.7-2.7,1-4
						l5.8-23.5c0.2-0.7,0.4-1.4,0.5-2.1c0.3-1.3,0.6-2.5,1-3.8l5.5-17.3l4.9-14.7c0.1-0.1,0-0.3,0-0.4s-0.2-0.2-0.3-0.3
						c-0.3-0.1-0.7,0-0.8,0.3l-5.1,14.6l-4.4,12.3c-1.2,3.4-2.6,7-3.6,10.6l-7.5,23.1c-0.5,1.4-0.9,2.8-1.4,4.2
						c-0.8,2.4-1.6,4.9-2.4,7.3l-3.2,11.7c-2.2,7.7-4.3,15.6-6.4,23.5c-1.2,5.1-2.3,10.4-3.3,15.5c-0.6,2.8-1.1,5.6-1.7,8.3
						l-2.4,11.9c-0.5,2.6-0.9,5.2-1.2,7.8c-0.2,1.4-0.4,2.8-0.6,4.2c-0.4,2.8-0.8,5.6-1.3,8.4
						C1668.8,1280.1,1668,1285.4,1667.3,1290.7L1667.3,1290.7z M1663,1387.9c-0.6-30.9,1.2-62.7,5.4-97.2c0.7-5.2,1.5-10.5,2.3-15.6
						c0.4-2.8,0.9-5.6,1.3-8.4c0.2-1.4,0.4-2.8,0.6-4.2c0.4-2.6,0.8-5.2,1.2-7.8l2.4-11.9c0.6-2.8,1.1-5.5,1.7-8.3
						c1-5.1,2.1-10.3,3.3-15.4c2.1-7.8,4.2-15.7,6.4-23.4l3.2-11.7c0.8-2.4,1.6-4.9,2.4-7.3c0.5-1.4,0.9-2.8,1.4-4.2l7.5-23.1
						c0.5-1.7,1.1-3.4,1.6-5c-0.3,1-0.5,2-0.8,3.1c-0.2,0.7-0.3,1.4-0.5,2.1l-5.8,23.5c-0.3,1.3-0.6,2.7-1,4
						c-0.6,2.6-1.3,5.2-1.9,7.7l-2.3,11.9c-1.5,7.8-3.1,15.8-4.7,23.7l-3.9,23.8l-2,11.9c-0.4,2.6-0.7,5.2-1.1,7.8
						c-0.2,1.4-0.3,2.8-0.5,4.2c-0.4,2.8-0.7,5.7-1.1,8.5c-0.6,5-1.3,10.2-1.9,15.4c-3.2,32.5-4.4,64.8-3.6,96l0.4,12l0.8,12
						c0.4,7.8,1.2,15.7,2,23.4l0.1,0.5c2,18,4.4,33.2,7.5,46.4l-9.5,2.6c-4-16.5-6.2-32.8-7.9-47.9l-1.2-12.2
						c-0.2-2.6-0.4-5.3-0.5-7.8c-0.1-1.4-0.1-2.9-0.2-4.3l-0.7-12.2L1663,1387.9L1663,1387.9z"/>
				</g>
				<path class="st36" d="M1574.4,1191.5c-17.1,0.1-20.5-0.2-20.5-0.2s3.4,15.7,4,17.9c7.1,24.7,19.7,39.8,51.6,47.1
					c31.9,7.2,47.2-3.7,47.2-3.7s0-29-24.9-43.3C1612.1,1197.9,1602.7,1191.4,1574.4,1191.5L1574.4,1191.5z"/>
				<path class="st36" d="M1751.5,1223.5c-32.5,1.9-58.8,33.9-59.5,49.1c-0.8,15.2,1.4,19.1,1.4,19.1s14.8,7.7,32.4,6.1
					c29.2-2.6,44-20.9,51.6-43.7c3.8-11.5,0-33.1,0-33.1S1764.4,1222.8,1751.5,1223.5L1751.5,1223.5z"/>
				<path class="st36" d="M1655.4,1348.1c0,0,2.4-33.6-28.8-51.4s-46.5-14.2-68.4-17.6c0,0,2.6,33.1,16.4,47.9
					S1631.6,1372.6,1655.4,1348.1L1655.4,1348.1z"/>
				<path class="st36" d="M1705.1,1338c-14.5,13.7-15,38.1-15,38.1s26,12.8,50.2-5.5s22.1-58.7,22.1-58.7S1732.2,1312.3,1705.1,1338
					z"/>
				<g>
					<path class="st37" d="M1608.1,1216.3c-4.9-2.4-9.9-4.4-14.9-6.6l-15.3-5.5l15,6.1c4.8,2.4,9.8,4.6,14.5,7.2l7,4
						c1.2,0.7,2.4,1.3,3.5,2l3.4,2.2l6.7,4.5l6.3,4.9c8.3,6.7,16,14.3,22.4,22.7c3.1,4.3,6.1,8.7,8.5,13.3c2.4,4.6,4.6,9.6,5.7,14.3
						l5.3-1.2c-1.6-5.8-4.1-10.6-6.9-15.4c-2.7-4.8-6-9.3-9.5-13.6c-7-8.5-15.2-15.9-23.9-22.4l-6.6-4.7l-6.9-4.3l-3.5-2.1
						c-1.2-0.7-2.4-1.3-3.6-1.9L1608.1,1216.3L1608.1,1216.3z"/>
					<path class="st37" d="M1578.2,1203.8c-0.2-0.1-0.5,0-0.6,0.3c-0.1,0.2,0,0.5,0.2,0.6l15,6.1c1.7,0.8,3.4,1.7,5.1,2.5
						c3.1,1.5,6.3,3,9.3,4.6l7,4c0.4,0.2,0.8,0.5,1.2,0.7c0.8,0.4,1.5,0.9,2.2,1.3l10,6.7l6.3,4.9c9.1,7.4,16.4,14.8,22.3,22.7
						c2.6,3.5,5.9,8.2,8.5,13.3c2.7,5.1,4.7,10,5.7,14.2c0.1,0.2,0.2,0.3,0.4,0.3h0.1l5.3-1.2c0.1,0,0.2-0.1,0.3-0.2
						s0.1-0.2,0.1-0.4c-1.8-6.2-4.5-11.4-6.9-15.6c-3-5.3-6.7-10-9.5-13.6c-6.5-7.9-14.3-15.3-24-22.4l-6.7-4.8l-10.5-6.4
						c-0.8-0.4-1.6-0.8-2.3-1.2c-0.4-0.2-0.9-0.4-1.3-0.7l-7.2-3.7c-3.2-1.5-6.5-2.9-9.6-4.3c-1.8-0.8-3.5-1.5-5.2-2.3
						L1578.2,1203.8L1578.2,1203.8z M1598.4,1212.4C1598.4,1212.4,1598.3,1212.4,1598.4,1212.4
						C1598.3,1212.4,1598.4,1212.4,1598.4,1212.4c3.1,1.3,6.4,2.8,9.6,4.3l7.2,3.7c0.4,0.2,0.9,0.5,1.3,0.7c0.8,0.4,1.5,0.8,2.3,1.2
						l10.4,6.4l6.6,4.7c9.6,7.2,17.4,14.4,23.8,22.3c2.8,3.5,6.5,8.3,9.4,13.5c2.3,4.1,4.9,9,6.7,14.9l-4.4,1c-1.1-4.2-3-9-5.7-14
						c-2.6-5.1-5.9-9.8-8.6-13.4c-6-7.9-13.3-15.4-22.4-22.8l-6.4-4.9l-10.1-6.8c-0.8-0.5-1.5-0.9-2.3-1.3c-0.4-0.2-0.8-0.5-1.2-0.7
						l-7-4C1604.7,1215.5,1601.5,1213.9,1598.4,1212.4L1598.4,1212.4z"/>
				</g>
				<g>
					<path class="st37" d="M1702,1279.7c-8.3,8.2-16.1,16.9-22.9,26.5c-6.7,9.6-12.4,20.4-14.9,32.4l6.5,1.1
						c1.6-10.8,6.5-21.2,12.5-30.8c6.1-9.6,13.3-18.5,21.1-27c7.8-8.4,16.2-16.3,25-23.9s17.8-14.7,27.3-21.4
						c-9.8,6.2-19.2,13-28.3,20.1C1719.2,1264,1710.4,1271.6,1702,1279.7L1702,1279.7z"/>
					<path class="st37" d="M1701.6,1279.4c-9.4,9.3-16.9,18-23,26.6c-8.1,11.6-12.8,22-15,32.6c0,0.1,0,0.3,0.1,0.4s0.2,0.2,0.4,0.2
						l6.5,1.1h0.1c0.1,0,0.2,0,0.3-0.1c0.1-0.1,0.2-0.2,0.2-0.4c1.5-9.6,5.5-19.6,12.4-30.6c5.4-8.6,12.3-17.4,21.1-26.9
						c7.5-8.1,15.9-16.1,24.9-23.8c9.5-8.1,18.4-15.1,27.2-21.4c0.2-0.2,0.3-0.5,0.1-0.8s-0.5-0.3-0.8-0.2
						c-9.2,5.8-18.5,12.4-28.4,20.2C1718.5,1263.8,1709.6,1271.5,1701.6,1279.4L1701.6,1279.4z M1670.3,1339.2l-5.4-0.9
						c2.2-10.3,6.8-20.4,14.7-31.7c6-8.6,13.5-17.2,22.8-26.5c8-7.8,16.8-15.4,26.2-22.8c3.1-2.4,6.1-4.7,9-6.8
						c-2.8,2.3-5.7,4.7-8.7,7.3c-9,7.8-17.5,15.8-25,23.9c-8.8,9.5-15.7,18.4-21.2,27.1C1675.9,1319.6,1671.8,1329.6,1670.3,1339.2
						L1670.3,1339.2z"/>
				</g>
				<g>
					<path class="st37" d="M1635.1,1324.1c-8.4-7-17.7-12.8-27.4-17.7c-9.7-4.8-19.8-8.9-30.3-11.5c10.3,3.2,20.2,7.7,29.5,13
						s18.1,11.5,26,18.7c3.9,3.6,7.6,7.4,11,11.5s6.5,8.4,9.1,12.9c5.4,9,9.1,19,11.2,29.2l6.4-1.5c-2.8-10.8-7.3-21.2-13.5-30.3
						c-3-4.6-6.5-9-10.2-13C1643.3,1331.3,1639.3,1327.6,1635.1,1324.1L1635.1,1324.1z"/>
					<path class="st37" d="M1577.6,1294.3c-0.3-0.1-0.6,0.1-0.7,0.4s0.1,0.6,0.4,0.7c9.5,3,19.4,7.3,29.4,12.9
						c9.8,5.5,18.5,11.8,25.9,18.7c4,3.6,7.7,7.5,10.9,11.5c3.5,4.2,6.5,8.5,9.1,12.9c5.2,8.5,8.9,18.3,11.2,29
						c0,0.2,0.1,0.3,0.2,0.3c0.1,0.1,0.2,0.1,0.3,0.1h0.1l6.4-1.4c0.2,0,0.3-0.1,0.4-0.3s0.1-0.3,0.1-0.4
						c-3-11.4-7.6-21.6-13.6-30.5c-2.9-4.5-6.4-8.9-10.2-13.1c-3.6-4-7.6-7.8-12-11.4c-8-6.6-17.2-12.6-27.5-17.8
						C1597.6,1300.7,1587.4,1296.8,1577.6,1294.3L1577.6,1294.3z M1607.2,1307.4c-3.1-1.8-6.2-3.4-9.3-4.9c3.2,1.4,6.4,2.8,9.6,4.4
						c10.2,5.1,19.4,11.1,27.3,17.6c4.3,3.5,8.3,7.3,11.9,11.3c3.8,4.2,7.2,8.5,10.1,12.9c5.8,8.6,10.3,18.6,13.3,29.6l-5.3,1.2
						c-2.3-10.6-6.1-20.3-11.2-28.8c-2.6-4.4-5.6-8.8-9.2-13c-3.3-4-7-7.9-11-11.6C1625.8,1319.3,1617.1,1312.9,1607.2,1307.4
						L1607.2,1307.4z"/>
				</g>
				<g>
					<path class="st37" d="M1671.5,1394.9c-2.6,4.1-5.2,8.4-6.2,14l6.5,0.8c0.4-3.7,2.3-7.9,4.6-11.7c2.3-3.9,4.9-7.6,7.8-11.2
						c5.7-7.2,12-14.1,18.5-20.8c13.1-13.3,26.9-25.8,41.3-37.8c-15,11.1-29.7,22.9-43.6,35.5c-6.9,6.3-13.7,12.9-20,20
						C1677.2,1387.2,1674.2,1390.9,1671.5,1394.9z"/>
					<path class="st37" d="M1680,1383.2c-3.7,4.2-6.5,7.9-8.9,11.4c-2.6,4-5.3,8.4-6.3,14.2c0,0.2,0,0.3,0.1,0.4s0.2,0.2,0.4,0.2
						l6.5,0.8h0.1c0.1,0,0.2,0,0.3-0.1c0.1-0.1,0.2-0.2,0.2-0.4c0.4-3.1,1.9-7,4.5-11.5c2-3.4,4.4-7,7.7-11.2
						c5-6.3,10.8-12.9,18.4-20.7c12.4-12.6,25.9-24.9,41.3-37.8c0.2-0.2,0.3-0.5,0.1-0.8s-0.5-0.3-0.8-0.1
						c-16.2,12-30.5,23.6-43.6,35.5C1691.8,1370.7,1685.4,1377,1680,1383.2L1680,1383.2z M1671.3,1409.1l-5.4-0.7
						c1.1-5.3,3.6-9.4,6-13.2c2.3-3.5,5.1-7.1,8.8-11.3c5.5-6.2,11.8-12.5,20-19.9c8.9-8.1,18.3-16,28.5-24
						c-9.7,8.6-18.6,17-27,25.5c-7.6,7.8-13.5,14.4-18.5,20.8c-3.3,4.2-5.8,7.8-7.8,11.3C1673.3,1402.1,1671.8,1405.9,1671.3,1409.1
						L1671.3,1409.1z"/>
				</g>
			</g>
			<polygon class="st27" points="1593.1,1449.6 1620.3,1617.2 1670.8,1617.2 1680,1617.2 1730.5,1617.2 1757.8,1449.6 1680,1449.6 
				1670.8,1449.6 			"/>
			<path class="st38" d="M1689.5,1570.8c-4.6,15.6-9.5,31.1-14.9,46.5h55.9l27.2-167.6h-40.9C1710,1490.5,1701.1,1531,1689.5,1570.8
				L1689.5,1570.8z"/>
		</g>
	</g>
</g>
</svg>
