<?xml version="1.0" encoding="UTF-8"?>
<svg id="Layer_2" data-name="Layer 2" xmlns="http://www.w3.org/2000/svg" viewBox="0 0 156.47 167.87">
  <defs>
    <style>
      .cls-1 {
        fill: #16425b;
      }
    </style>
  </defs>
  <g id="Layer_8" data-name="Layer 8">
    <g>
      <path class="cls-1" d="m86.73,0h31.41c1.55.88,2.05,2.22,1.99,3.97-.1,2.95-.02,5.9-.03,8.85,0,3.11-.85,3.94-4.01,3.94-2.02,0-4.06.22-6.05-.05-2.84-.38-4.55,1.19-6.33,2.94,2.57,5.17,5.11,10.27,7.7,15.47-1.75.87-3.32,1.66-4.98,2.49-2.46-4.9-4.81-9.61-7.24-14.44-1.13.89-2.07,1.7-3.09,2.41-.89.62-1.25,1.36-1.19,2.47.09,1.91-.07,3.83.07,5.73.06.83.42,1.81.99,2.39,3.76,3.88,7.58,7.7,11.44,11.49,1.09,1.07,1.6,2.26,1.56,3.79-.07,2.38-.02,4.77-.02,7.28,3.63,0,7.05-.02,10.48,0,2.37.02,3.42,1.03,3.46,3.38.05,3.33.05,6.67,0,10-.03,2.41-1.01,3.35-3.41,3.4-1.73.03-3.46,0-5.3,0-1.83,14.24-3.63,28.29-5.41,42.17,2.3.9,4.35,1.78,6.45,2.51,3.42,1.2,6.92,1.34,10.2-.23,4.48-2.15,9.15-2.64,14-2.49,9.42.3,16.71,7.21,16.94,16.3.15,5.95.13,11.91,0,17.86-.11,4.95-2.27,9.02-6.01,12.26-2.51,2.17-5.5,3.24-8.65,3.96h-8.84c-2.81-.97-5.57-2.16-8.45-2.83-2.17-.51-4.59-.83-6.72-.39-3.52.72-6.91,2.11-10.36,3.22h-9.16c-.29-.11-.57-.26-.87-.33-3.05-.65-5.8-1.94-8.02-4.15-.86-.85-1.71-1.13-2.87-1.13-20.78.03-41.56.02-62.33.02-.55,0-1.09.03-1.64-.02-1.55-.12-2.53-.92-2.82-2.48-.13-.7-.22-1.4-.31-2.11-1.36-10.56-2.71-21.12-4.07-31.68-1.59-12.34-3.18-24.69-4.78-37.03-.57-4.43-1.15-8.85-1.75-13.46-1.95,0-3.79.05-5.63-.01-1.99-.07-3.03-1.08-3.06-3.07-.06-3.5-.05-6.99,0-10.49.03-2.11,1.13-3.16,3.32-3.19,2.67-.05,5.34-.01,8.02-.01.85,0,1.69,0,2.64,0,0-.86,0-1.45,0-2.05,0-6.39.03-12.79-.02-19.18-.01-1.51.43-2.72,1.38-3.88,2.91-3.54,5.71-7.18,8.63-10.71.85-1.03,1.23-2.05,1.21-3.39-.07-5.19.02-10.38-.06-15.57-.03-1.75.42-3.1,2.01-3.94h18.32c1.6.84,2.04,2.19,2.01,3.93-.07,5.35-.07,10.7.01,16.06.01.84.37,1.81.88,2.47,2.83,3.67,5.71,7.31,8.67,10.88,1.11,1.34,1.62,2.71,1.6,4.46-.07,6.33-.03,12.67-.03,19.01,0,.58,0,1.17,0,1.79h5.59c0-4.16.06-8.19-.03-12.23-.04-1.88.47-3.35,1.88-4.64,1.97-1.8,3.81-3.75,5.68-5.66.36-.37.81-.86.83-1.31.09-2.22.04-4.44.04-6.82-1.88,0-3.56.04-5.23,0-2.13-.06-3.17-1.2-3.13-3.32.24-10.77,7.41-20.31,17.71-23.48,1.55-.48,3.16-.76,4.74-1.14Zm-8.51,102.47c0,.91,0,1.51,0,2.11,0,6.99.04,13.99-.01,20.98-.05,6.45-4.57,11.37-10.81,11.46-9.54.14-19.08.08-28.62.01-3.46-.03-6.28-1.58-8.45-4.3-1.9-2.39-2.39-5.19-2.39-8.15,0-15.62,0-31.25,0-46.87,0-.68-.06-1.37-.09-2.07h-13.45c3.49,27.07,6.96,54.01,10.43,80.99h59.86c-.23-1.14-.6-2.2-.62-3.26-.14-6.11-.25-12.23-.26-18.34-.01-10.16,7.19-17.45,17.36-17.49,1.63,0,2.09-.48,2.28-2.04,1.19-9.81,2.49-19.6,3.75-29.4.44-3.45.87-6.91,1.32-10.47h-30.3c0,1.73.09,3.37-.03,4.99-.1,1.24.39,1.82,1.46,2.33,4.46,2.15,8.89,4.38,13.3,6.63,3.91,1.99,5.95,5.64,5.36,9.42-1.01,6.44-7.07,9.72-12.99,6.98-2.31-1.07-4.56-2.26-7.11-3.52Zm-44.61-38.06c-.03.66-.08,1.25-.08,1.83,0,19.45,0,38.89,0,58.34,0,.82.03,1.65.17,2.45.45,2.59,2.78,4.44,5.48,4.28v-24.92h5.57v25h5.59v-24.95h5.63v24.91h5.63v-24.94h5.47v24.96c3.34-.03,5.55-2.36,5.57-5.86.03-8.85,0-17.7.01-26.55,0-3.48,1.86-4.61,4.98-3.06,3.36,1.68,6.71,3.39,10.09,5.04,1.31.64,2.66.68,3.83-.34,1.09-.94,1.6-2.3,1.02-3.54-.48-1.03-1.46-2.05-2.47-2.58-5.06-2.66-10.19-5.19-15.32-7.72-1.49-.74-2.16-1.81-2.14-3.5.05-5.68.02-11.36.02-17.04,0-.58,0-1.16,0-1.82h-39.03Zm69.78,58.63c-1.31.07-2.61.09-3.92.2-5.44.47-9.45,4.61-10.04,10.33-.51,4.89,2.87,10.07,7.84,11.31,4.89,1.22,9.8,1.07,14.53-1.1,5.39-2.47,10.91-2.6,16.29-.1,4.14,1.92,8.41,2.13,12.78,1.65,5.55-.61,9.42-4.75,9.91-10.46.42-4.89-2.97-9.97-8.01-11.19-4.77-1.15-9.6-1.05-14.23,1.08-5.62,2.58-11.29,2.57-16.91,0-2.64-1.21-5.37-1.77-8.25-1.71Zm-14.01,24.23c0,1.24-.05,2.55,0,3.86.25,5.25,3.28,9.48,8.16,10.62,4.33,1.01,8.84,1.21,13-.72,6.41-2.98,12.65-3,19.07-.02,4.16,1.94,8.63,1.6,13,.76,1.38-.27,2.75-1.09,3.89-1.96,4.25-3.23,4.63-7.83,4.24-12.84-1.11.72-2.04,1.47-3.09,1.97-6.75,3.17-13.68,3.1-20.43.3-4.86-2.01-9.38-2.18-14.17.01-5.47,2.51-11.26,2.43-16.97,1.07-2.3-.55-4.4-1.98-6.69-3.05ZM19.71,39.26v19.37h33.24v-19.37H19.71Zm83.67,19.38c0-2.11.07-4.02-.04-5.93-.04-.68-.35-1.49-.82-1.97-3.5-3.6-7.05-7.16-10.64-10.66-.52-.5-1.39-.86-2.11-.89-2.5-.11-5.05.22-7.52-.1-4.12-.53-7.05.91-9.78,4-1.82,2.06-2.96,3.88-2.71,6.7.25,2.91.06,5.86.06,8.84h33.56Zm-33.24-36.43c.24.06.4.13.56.13,6.59,0,13.19.02,19.78-.01.49,0,1.06-.25,1.46-.56,3.59-2.84,7.16-5.71,10.72-8.59.31-.25.67-.66.68-1.01.06-2.16.03-4.32.03-6.53-5.34,0-10.48-.29-15.57.06-9.01.63-16.29,7.6-17.66,16.5Zm8.16,47.62h38.87v-5.41h-38.87v5.41Zm-28.33-36.37c-2.23-2.79-4.23-5.35-6.31-7.84-.25-.3-.87-.38-1.31-.39-4.03-.03-8.06-.03-12.08,0-.4,0-.97.05-1.18.31-2.1,2.54-4.14,5.12-6.39,7.92h27.28Zm-8.19-13.93V5.71h-10.9v13.81h10.9ZM5.65,69.82h22.15v-5.37H5.65v5.37ZM89.29,28.08h-10.98v5.38h10.98v-5.38Zm25.13-16.99v-5.38h-5.37v5.38h5.37Z"/>
      <path class="cls-1" d="m114.43,134.23h-5.37v-5.38h5.37v5.38Z"/>
      <path class="cls-1" d="m97.87,136.98v-5.37h5.39v5.37h-5.39Z"/>
      <path class="cls-1" d="m125.81,131.55h5.34v5.43h-5.34v-5.43Z"/>
      <path class="cls-1" d="m142.33,134.22h-5.4v-5.38h5.4v5.38Z"/>
    </g>
  </g>
</svg>