<?xml version="1.0" encoding="UTF-8"?><svg id="Layer_2" xmlns="http://www.w3.org/2000/svg" viewBox="0 0 209.95 210.73"><defs><style>.cls-1{fill:#ede1cc;}.cls-2{fill:#b7e0b6;}.cls-3{fill:#d3af84;}</style></defs><g id="Layer_1-2"><path d="m130.37,210.73c-3.15-.5-5.39-2.4-7.56-4.59-10.98-11.08-22.07-22.06-33.04-33.15-1.14-1.15-2.1-1.32-3.58-.95-35.42,8.83-70.91-10.59-82.6-45.17-13.47-39.81,12.54-82.98,54.09-89.8,8.36-1.37,16.69-1.29,25,.39.6.12,1.21.16,2.11.28,0-.84,0-1.57,0-2.3,0-8.11-.01-16.22,0-24.33C84.79,3.94,88.74,0,95.87,0c23.23,0,46.46,0,69.69,0,6.99,0,10.98,4,10.98,11.01,0,36.43,0,72.85,0,109.28,0,.81,0,1.62,0,2.67.91,0,1.64,0,2.38,0,7.29,0,14.57,0,21.86,0,4.24,0,7.24,1.81,8.55,5.21,1.43,3.72.31,6.81-2.42,9.53-23.29,23.27-46.58,46.54-69.82,69.85-1.8,1.8-3.92,2.67-6.3,3.16h-.41Zm-35.05-41.64c.25.35.35.53.5.68,11.03,11.03,22.07,22.05,33.07,33.11,1.48,1.49,2.53,1,3.79-.26,23.11-23.15,46.25-46.26,69.34-69.43.63-.63.79-1.72,1.17-2.59-.9-.34-1.79-.98-2.69-.99-7.49-.08-14.98-.04-22.47-.05-5.78,0-8.08-2.32-8.08-8.14,0-36.7,0-73.39,0-110.09,0-3.77-.97-4.74-4.76-4.74-23.02,0-46.04,0-69.06,0-3.8,0-4.76.95-4.76,4.74,0,8.73.05,17.46-.05,26.18-.02,1.76.59,2.44,2.18,3.04,48.33,18.08,60.21,81.52,21.76,115.95-5.88,5.27-12.48,9.4-19.93,12.58Zm-26.16-126.38c-34.4-.03-62.43,27.91-62.5,62.31-.08,34.47,27.94,62.55,62.44,62.59,34.39.04,62.42-27.92,62.51-62.32.08-34.47-27.93-62.55-62.45-62.58Z"/><path class="cls-2" d="m95.32,169.09c7.45-3.18,14.05-7.31,19.93-12.58,38.45-34.43,26.57-97.87-21.76-115.95-1.59-.59-2.2-1.28-2.18-3.04.1-8.73.04-17.45.05-26.18,0-3.8.96-4.74,4.76-4.74,23.02,0,46.04,0,69.06,0,3.78,0,4.75.97,4.76,4.74,0,36.7,0,73.39,0,110.09,0,5.82,2.3,8.13,8.08,8.14,7.49,0,14.98-.03,22.47.05.9,0,1.8.64,2.69.99-.38.87-.54,1.96-1.17,2.59-23.09,23.17-46.23,46.29-69.34,69.43-1.26,1.26-2.31,1.75-3.79.26-11-11.06-22.04-22.07-33.07-33.11-.14-.14-.24-.33-.5-.68Z"/><path class="cls-3" d="m69.16,42.71c34.51.03,62.53,28.11,62.45,62.58-.08,34.4-28.12,62.36-62.51,62.32-34.51-.04-62.52-28.12-62.44-62.59.08-34.4,28.11-62.35,62.5-62.31Zm.03,10.78c-28.48-.06-51.72,23.08-51.78,51.55-.07,28.46,23,51.63,51.55,51.79,28.51.16,51.88-23.11,51.89-51.66,0-28.47-23.14-51.62-51.66-51.68Z"/><path d="m69.19,53.49c28.52.06,51.66,23.21,51.66,51.68,0,28.54-23.38,51.81-51.89,51.66-28.56-.16-51.62-23.32-51.55-51.79.07-28.47,23.3-51.61,51.78-51.55Zm-.1,6.59c-24.89.03-45.11,20.25-45.09,45.11.01,24.85,20.29,45.07,45.16,45.05,24.88-.02,45.11-20.26,45.09-45.11-.02-24.86-20.28-45.07-45.16-45.04Z"/><path class="cls-1" d="m69.09,60.08c24.88-.03,45.14,20.18,45.16,45.04.02,24.85-20.21,45.09-45.09,45.11-24.87.02-45.14-20.2-45.16-45.05-.01-24.86,20.2-45.08,45.09-45.11Zm-3.36,18.1c-6.11.7-10.51,3.56-12.27,9.22-.89,2.85-.92,6.12-.65,9.14.6,6.76,6.29,11.74,13.08,11.9,2.13.05,4.26-.04,6.39.04,3.45.12,6.18,2.48,6.63,5.9.22,1.68.23,3.44,0,5.12-.44,3.45-3.13,5.78-6.6,5.91-1.72.07-3.43.03-5.15.03-5-.02-7.43-2.19-8.02-7.16-.27-2.3-1.58-3.49-3.61-3.3-1.86.17-2.99,1.63-2.95,3.79.12,6,4.29,11.29,10.12,12.8.98.25,1.98.42,3.03.63.27,2.59-.62,6.16,3.34,6.2,4.11.04,3.09-3.69,3.49-6.29.56-.08,1.02-.13,1.49-.2,5.51-.88,10.04-4.81,11.14-10.21.51-2.51.54-5.21.29-7.77-.69-6.97-6.34-11.95-13.37-12.07-1.99-.03-3.99.03-5.98-.02-3.65-.1-6.44-2.53-6.85-6.15-.19-1.69-.16-3.45.08-5.12.48-3.24,3.12-5.51,6.39-5.66,1.78-.08,3.57-.04,5.36-.04,4.9.02,7.25,2.08,7.99,6.98.32,2.14,1.69,3.41,3.51,3.25,1.93-.17,3.13-1.73,3.02-3.95-.3-5.97-4.42-10.98-10.26-12.46-.92-.23-1.85-.38-2.86-.59-.31-2.55.64-6.15-3.32-6.21-4.12-.06-3.18,3.63-3.48,6.28Z"/><path d="m65.73,78.18c.3-2.65-.65-6.34,3.48-6.28,3.96.06,3.01,3.65,3.32,6.21,1,.2,1.94.35,2.86.59,5.84,1.47,9.96,6.48,10.26,12.46.11,2.22-1.09,3.79-3.02,3.95-1.82.16-3.18-1.11-3.51-3.25-.74-4.9-3.09-6.96-7.99-6.98-1.79,0-3.58-.05-5.36.04-3.26.15-5.91,2.42-6.39,5.66-.25,1.68-.27,3.44-.08,5.12.41,3.62,3.19,6.05,6.85,6.15,1.99.05,3.98,0,5.98.02,7.03.12,12.68,5.1,13.37,12.07.25,2.56.22,5.26-.29,7.77-1.11,5.4-5.63,9.33-11.14,10.21-.46.07-.93.13-1.49.2-.39,2.59.62,6.33-3.49,6.29-3.96-.04-3.07-3.61-3.34-6.2-1.05-.22-2.06-.38-3.03-.63-5.83-1.52-10-6.8-10.12-12.8-.04-2.16,1.09-3.62,2.95-3.79,2.04-.19,3.34,1,3.61,3.3.59,4.97,3.02,7.14,8.02,7.16,1.72,0,3.44.04,5.15-.03,3.47-.13,6.16-2.46,6.6-5.91.22-1.68.21-3.44,0-5.12-.45-3.42-3.18-5.78-6.63-5.9-2.13-.07-4.26.02-6.39-.04-6.79-.17-12.48-5.15-13.08-11.9-.27-3.02-.24-6.29.65-9.14,1.76-5.65,6.15-8.52,12.27-9.22Z"/></g></svg>