<?xml version="1.0" encoding="UTF-8"?>
<svg id="Layer_2" data-name="Layer 2" xmlns="http://www.w3.org/2000/svg" viewBox="0 0 177.29 138.46">
  <defs>
    <style>
      .cls-1 {
        fill: #2f6690;
      }
    </style>
  </defs>
  <g id="Layer_4" data-name="Layer 4">
    <g>
      <path class="cls-1" d="m25.57,31.97c.99.91,1.9,1.74,2.66,2.44-1.35,3.69-2.83,7.17-3.93,10.8-3,9.96-3.9,20.1-3.26,30.3.97,15.41,5.08,29.13,11,41.79,2.86,6.12,6.11,11.91,9.28,18.05-.77.84-1.71,1.89-2.81,3.1-2-3.56-4.01-6.96-5.87-10.49-5.79-10.99-10.41-22.82-13.06-36.03-2.84-14.14-3.21-28.6.26-43.4,1.1-4.7,2.88-9.22,4.4-13.79.31-.94.84-1.77,1.32-2.77Z"/>
      <path class="cls-1" d="m37.31,53.09c3.02,12.98-4.24,24.94-13.9,26.62-3.21-11.21,5.34-24.2,13.9-26.62Z"/>
      <path class="cls-1" d="m40.03,0c2.7,10.26-1.72,25.65-11.25,28.49C25.01,18.45,28.79,3.89,40.03,0Z"/>
      <path class="cls-1" d="m43.47,27.63c.51,6.49-.43,12.47-4.14,17.58-3.07,4.23-6.85,6.35-11.1,6.96-1.12.16-1.43-.36-1.45-1.65-.11-7.12,2.35-12.8,6.75-17.34,2.93-3.02,6.19-4.9,9.94-5.55Z"/>
      <path class="cls-1" d="m40.31,73.42c3.83,12.25-1.89,24.25-11.2,27.94-.91.36-1.14-.17-1.33-1.06-1.11-5.14-.56-10.21,1.69-15.08,2.55-5.53,6.15-9.48,10.84-11.81Z"/>
      <path class="cls-1" d="m19.34,107.58c-8.77,4.19-18.82-1.46-19-16.17,7.23-2.87,18.9,2.49,19,16.17Z"/>
      <path class="cls-1" d="m12.98,66.27c-10.26-2.83-14.05-15.98-9.03-27.33,8.25,1.38,13.82,18.11,9.03,27.33Z"/>
      <path class="cls-1" d="m8.25,115.15c8.02-3.9,19.29.2,20.59,12.86-7.44,5.46-18.91,2.38-20.59-12.86Z"/>
      <path class="cls-1" d="m36.93,124.25c-6.45-9.47-1.24-24.93,5.7-30.63,6.57,9.69,3.44,24.03-5.7,30.63Z"/>
      <path class="cls-1" d="m16.61,45.35c-8.41-6.17-9.87-20.38-2.19-30.44,6.45,5.65,9.67,20.76,2.19,30.44Z"/>
      <path class="cls-1" d="m14.45,88.56c-10.25.36-16.78-10.52-13.66-23.43,8.1.15,16.93,11.14,13.66,23.43Z"/>
      <path class="cls-1" d="m151.72,31.97c-.99.91-1.9,1.74-2.66,2.44,1.35,3.69,2.83,7.17,3.93,10.8,3,9.96,3.9,20.1,3.26,30.3-.97,15.41-5.08,29.13-11,41.79-2.86,6.12-6.11,11.91-9.28,18.05.77.84,1.71,1.89,2.81,3.1,2-3.56,4.01-6.96,5.87-10.49,5.79-10.99,10.41-22.82,13.06-36.03,2.84-14.14,3.21-28.6-.26-43.4-1.1-4.7-2.88-9.22-4.4-13.79-.31-.94-.84-1.77-1.32-2.77Z"/>
      <path class="cls-1" d="m139.98,53.09c-3.02,12.98,4.24,24.94,13.9,26.62,3.21-11.21-5.34-24.2-13.9-26.62Z"/>
      <path class="cls-1" d="m137.26,0c-2.7,10.26,1.72,25.65,11.25,28.49,3.77-10.04,0-24.61-11.25-28.49Z"/>
      <path class="cls-1" d="m133.81,27.63c-.51,6.49.43,12.47,4.14,17.58,3.07,4.23,6.85,6.35,11.1,6.96,1.12.16,1.43-.36,1.45-1.65.11-7.12-2.35-12.8-6.75-17.34-2.93-3.02-6.19-4.9-9.94-5.55Z"/>
      <path class="cls-1" d="m136.98,73.42c-3.83,12.25,1.89,24.25,11.2,27.94.91.36,1.14-.17,1.33-1.06,1.11-5.14.56-10.21-1.69-15.08-2.55-5.53-6.15-9.48-10.84-11.81Z"/>
      <path class="cls-1" d="m157.95,107.58c8.77,4.19,18.82-1.46,19-16.17-7.23-2.87-18.9,2.49-19,16.17Z"/>
      <path class="cls-1" d="m164.31,66.27c10.26-2.83,14.05-15.98,9.03-27.33-8.25,1.38-13.82,18.11-9.03,27.33Z"/>
      <path class="cls-1" d="m169.04,115.15c-8.02-3.9-19.29.2-20.59,12.86,7.44,5.46,18.91,2.38,20.59-12.86Z"/>
      <path class="cls-1" d="m140.35,124.25c6.45-9.47,1.24-24.93-5.7-30.63-6.57,9.69-3.44,24.03,5.7,30.63Z"/>
      <path class="cls-1" d="m160.68,45.35c8.41-6.17,9.87-20.38,2.19-30.44-6.45,5.65-9.67,20.76-2.19,30.44Z"/>
      <path class="cls-1" d="m162.84,88.56c10.25.36,16.78-10.52,13.66-23.43-8.1.15-16.93,11.14-13.66,23.43Z"/>
      <polygon class="cls-1" points="108.08 103.33 86.52 91.27 64.36 102.19 69.17 77.96 51.94 60.27 76.47 57.35 87.98 35.49 98.33 57.92 122.67 62.11 104.54 78.89 108.08 103.33"/>
    </g>
  </g>
</svg>