<?xml version="1.0" encoding="UTF-8"?><svg id="Layer_2" xmlns="http://www.w3.org/2000/svg" viewBox="0 0 242.75 274.81"><defs><style>.cls-1{fill:#16425b;}.cls-2,.cls-3{fill:none;stroke:#16425b;stroke-miterlimit:10;stroke-width:5px;}.cls-3{stroke-linecap:round;}</style></defs><g id="Layer_1-2"><g><path class="cls-3" d="m2.5,118.82L121.1,2.5M31.29,92.75v179.56h109.97c58.03-1.25,77.67-32.9,75.76-94.99"/><circle class="cls-3" cx="155.54" cy="49.2" r="43.12"/><g><g><path class="cls-2" d="m185.4,163.78s-8.56,27.02-21.35,29.57c3.72-13.71,6.83-24.46,3.11-35.88,15.19,1.32,18.23,6.31,18.23,6.31Z"/><path class="cls-2" d="m218.67,173.62l.54-9.07,21.04.73c.23-23.07-16.37-24.15-29.86-25.14-13.49-.99-43.7-2.04-43.7-2.04l.4,18.31s23.11.91,23.79,18.05l27.8-.84Z"/><polygon class="cls-2" points="154.86 156.25 154.86 137.63 167.2 138.04 167.2 156.25 154.86 156.25"/></g><path class="cls-2" d="m190.76,174.87c.15,23.47-24.41,11.04-23.58,94.4,48.6-10.44,52.27-62.05,51.37-95.23l-27.8.84Z"/></g><path class="cls-1" d="m183,163.01c-1.3,4.06-9.46,28-21.16,30.34,3.57-13.13,6.56-25.87,3.56-36.95-1.1-.12-1.77-.15-1.77-.15h-10.98v-18.62l12.34.41v.05c5.97.22,30.02,1.13,42.19,1.97-.04-14.29-.26-29.25-.26-44.52l-17.94-17.89c-7.29,8.76-18.02,14.63-30.29,15.44-23.76,1.57-44.29-16.43-45.86-40.19-.94-14.26,5.17-27.35,15.33-35.88l-2.4-2.39L44.61,95.55v165.02h106.68c5.01,0,9.56-.51,13.72-1.45,1.2-72.19,23.69-61.77,23.54-84.24l18.08-.54c0-.14.01-.28.02-.42l-18,.54c-.2-5.12-2.52-8.79-5.66-11.44ZM96.15,60.66c7.16,0,12.97,5.81,12.97,12.97s-5.81,12.97-12.97,12.97-12.97-5.81-12.97-12.97,5.81-12.97,12.97-12.97Zm-46.38,47.23c0-12.62,10.23-22.84,22.84-22.84s22.84,10.23,22.84,22.84-10.23,22.84-22.84,22.84-22.84-10.23-22.84-22.84Zm52.63,95.63c-18.02,0-32.62-14.6-32.62-32.62s14.6-32.62,32.62-32.62,32.62,14.6,32.62,32.62-14.6,32.62-32.62,32.62Zm29.31-69.58c-9.41,0-17.03-7.62-17.03-17.03s7.62-17.03,17.03-17.03,17.03,7.62,17.03,17.03-7.62,17.03-17.03,17.03Z"/></g></g></svg>