<?xml version="1.0" encoding="UTF-8"?>
<svg id="Layer_2" data-name="Layer 2" xmlns="http://www.w3.org/2000/svg" viewBox="0 0 148.6 148.54">
  <defs>
    <style>
      .cls-1 {
        fill: #81c3d7;
      }
    </style>
  </defs>
  <g id="Layer_6" data-name="Layer 6">
    <g>
      <path class="cls-1" d="m78.67,148.54h-8.7c-.42-.08-.84-.19-1.27-.25-4.05-.63-8.17-.97-12.14-1.92C18.43,137.24-6.13,98.93,1.33,60.37c3.1-16.03,10.59-29.7,22.65-40.68C41.18,4.02,61.51-2.23,84.54.7c14.67,1.86,27.6,7.89,38.68,17.68,13.06,11.53,21.22,25.88,24.23,43.09.49,2.79.77,5.62,1.14,8.43v8.71c-.09.46-.2.93-.26,1.39-.36,2.73-.56,5.48-1.07,8.18-2.81,14.8-9.55,27.58-20.13,38.27-11.1,11.21-24.44,18.26-40.02,20.95-2.8.48-5.63.77-8.45,1.14Zm-4.42-139.74c-36.19.18-65.45,29.49-65.37,65.48.08,36.11,29.37,65.4,65.43,65.42,36.07.02,65.71-29.67,65.45-65.55-.27-36.27-29.6-65.52-65.5-65.35Z"/>
      <path class="cls-1" d="m74.4,77.47c12.67,0,25.34,0,38,0,4.02,0,5.59,1.64,5.46,5.69-.61,18.65-12.65,34.62-30.42,40.37-17.26,5.58-36.92-.72-47.81-15.26-5.68-7.59-8.67-16.08-8.88-25.56-.07-3.43,1.61-5.23,5.06-5.23,12.86-.01,25.72,0,38.58,0Zm-34.46,8.97c1.74,16.2,16.75,31.63,37.1,30.12,18.4-1.37,30.5-16.61,31.56-30.12H39.94Z"/>
      <path class="cls-1" d="m54.93,62.13c-1.37.11-2.47-.86-3.6-1.78-3.32-2.71-7.53-3.05-11.21-.88-.78.46-1.46,1.1-2.19,1.66-1.95,1.51-4.55,1.31-6.13-.49-1.53-1.73-1.43-4.3.24-6.05,6.8-7.13,19.31-7.14,26.13-.04,1.36,1.41,1.73,3.26,1,4.94-.69,1.6-2.24,2.61-4.24,2.63Z"/>
      <path class="cls-1" d="m103.47,49.22c4.9.02,9.16,1.7,12.75,5.02,1.99,1.84,2.25,4.48.66,6.34-1.65,1.94-4.29,2.07-6.46.31-3.99-3.24-7.97-3.74-11.89-1.44-.78.46-1.46,1.1-2.19,1.66-1.97,1.51-4.58,1.32-6.14-.46-1.58-1.81-1.49-4.39.32-6.14,3.6-3.49,7.92-5.25,12.94-5.3Z"/>
    </g>
  </g>
</svg>